<?xml version="1.0" encoding="UTF-8" standalone="no"?>
<!-- Created with Inkscape (http://www.inkscape.org/) -->

<svg
   width="14.471mm"
   height="13.229mm"
   viewBox="0 0 14.470999 13.228998"
   version="1.1"
   id="svg1"
   inkscape:version="1.3.2 (091e20e, 2023-11-25, custom)"
   sodipodi:docname="close.svg"
   xml:space="preserve"
   xmlns:inkscape="http://www.inkscape.org/namespaces/inkscape"
   xmlns:sodipodi="http://sodipodi.sourceforge.net/DTD/sodipodi-0.dtd"
   xmlns="http://www.w3.org/2000/svg"
   xmlns:svg="http://www.w3.org/2000/svg"><sodipodi:namedview
     id="namedview1"
     pagecolor="#ffffff"
     bordercolor="#000000"
     borderopacity="0.25"
     inkscape:showpageshadow="2"
     inkscape:pageopacity="0.0"
     inkscape:pagecheckerboard="0"
     inkscape:deskcolor="#d1d1d1"
     inkscape:document-units="mm"
     inkscape:zoom="7.8312672"
     inkscape:cx="-30.390995"
     inkscape:cy="18.196289"
     inkscape:window-width="1920"
     inkscape:window-height="991"
     inkscape:window-x="-9"
     inkscape:window-y="-9"
     inkscape:window-maximized="1"
     inkscape:current-layer="layer1" /><defs
     id="defs1" /><g
     inkscape:label="Layer 1"
     inkscape:groupmode="layer"
     id="layer1"><path
       id="path6-3"
       style="fill:#333333;stroke-width:0;fill-opacity:1"
       d="M 10.133861,12.049616 C 6.4387402,14.182994 2.0577817,12.117592 0.2221928,10.3334 -0.35611973,7.8807885 -0.00337964,3.0249151 3.691741,0.8915369 c 3.6951216,-2.1333794 7.931091,0.0157326 9.911668,1.7162147 0.657289,2.9242379 0.225573,7.3084853 -3.469548,9.4418644 z"
       sodipodi:nodetypes="scccs" /><circle
       style="mix-blend-mode:normal;fill:#ffffff;fill-opacity:0.01431981;stroke:none;stroke-width:0;stroke-dasharray:none"
       id="path2"
       cx="4.0132914"
       cy="3.4401543"
       r="1.7200773" /><g
       id="g11"
       transform="matrix(0,-0.08538365,0.08538365,0,10.018143,15.470259)"
       style="fill:#c2fe08;fill-opacity:1"><path
         id="path10"
         style="fill:#c2fe08;fill-opacity:1;stroke-width:0.840519"
         d="m 91.408481,-80.348445 c -0.121088,-0.115859 -0.326783,-0.181252 -0.736661,-0.309865 -0.452217,-0.141901 -1.879226,-0.955365 -3.171006,-1.808037 -1.29178,-0.852673 -2.538221,-1.600024 -2.76979,-1.660412 -0.616658,-0.160812 -3.432904,3.090851 -4.293904,4.957484 -1.31175,2.843855 -1.405992,5.893048 -0.261632,8.467224 l 0.584652,1.314737 1.863579,1.42582 c 1.254119,0.959636 2.404111,2.007374 3.516682,3.203894 l 1.653104,1.778073 0.799877,-0.115104 c 0.91172,-0.131051 1.716407,0.251235 2.3218,1.102069 0.68635,0.964616 0.685108,1.270691 -0.0062,1.70682 -0.346186,0.218397 -0.555136,0.470953 -0.464799,0.561266 0.09034,0.09031 0.888818,0.716067 1.77442,1.39074 3.514734,2.677611 5.442889,4.467511 14.343337,13.315084 8.51744,8.466843 9.15658,9.134942 9.96979,10.422891 1.32357,2.096265 4.32134,5.073785 6.20023,6.157845 l 1.4302,0.825087 0.83459,1.621682 c 1.02575,1.992601 2.67296,4.142703 6.59707,8.611924 3.14255,3.579093 4.4367,5.1613 5.17454,6.325575 0.60838,0.959994 0.56836,0.926493 1.62168,1.3600403 0.58838,0.2421841 1.55558,0.9079159 2.54214,1.7499394 l 1.59244,1.3593152 2.05578,0.3149786 c 2.0266,0.3109056 4.04726,0.3814968 4.2793,0.1494576 0.0654,-0.065366 0.16827,-0.4386714 0.22874,-0.8294752 0.0605,-0.3907952 0.53252,-1.2233442 1.04872,-1.8504234 0.8935,-1.085503 0.91824,-1.1672636 0.52253,-1.6998775 -0.76783,-1.03348 -1.25718,-2.149879 -1.03849,-2.368575 0.17706,-0.177063 0.31039,-0.08694 0.72534,0.490745 0.98616,1.372918 1.38333,1.694122 1.77441,1.433855 0.4809,-0.320066 0.62807,-2.088493 0.27224,-3.274411 -0.4473,-1.490742 -1.45999,-3.502854 -3.357,-6.671246 -2.49859,-4.173157 -2.39255,-4.05943 -4.0173,-4.314006 -0.75335,-0.118042 -1.55754,-0.195248 -1.7872,-0.17137 -0.39374,0.04092 -0.47101,-0.04203 -1.35238,-1.453961 -1.26671,-2.029251 -4.08746,-4.834371 -6.94164,-6.902911 -4.21979,-3.058195 -6.90112,-5.741372 -8.18403,-8.19061 -0.53957,-1.030064 -0.58462,-1.075232 -2.44276,-2.436906 -4.12624,-3.023783 -7.82432,-6.677951 -8.72995,-8.626179 -0.31199,-0.671169 -1.10709,-1.558376 -4.46564,-4.983792 -4.30342,-4.389099 -5.8738,-5.773114 -8.11717,-7.153948 l -1.37064,-0.843726 -0.7754,-1.333007 c -0.50651,-0.870491 -1.686246,-2.37351 -3.40011,-4.331907 -4.6453,-5.308086 -5.45517,-6.436539 -5.814365,-8.102547 -0.07159,-0.332058 -0.108022,-0.498391 -0.229112,-0.61425 z m 0.386602,5.459189 c 0.309429,0.321911 0.04444,0.580494 -0.800608,1.118513 -0.596809,0.379973 -1.227588,0.696883 -1.401703,0.704506 -0.379103,0.0166 -1.054058,-0.635024 -1.321314,-1.276004 -0.439248,-1.053479 1.427597,-1.772232 2.746403,-1.057489 0.377709,0.204704 0.636572,0.364151 0.777222,0.510474 z" /><path
         id="path8"
         style="fill:#c2fe08;fill-opacity:1;stroke-width:0.869745"
         d="m 80.354858,-20.149073 c -2.498782,2.593662 -3.849721,5.113676 -3.887427,7.284475 -0.02019,1.16253 -0.0053,1.187553 1.313295,2.27833 4.125558,3.412736 8.418108,4.0852153 12.590767,1.9723147 1.453526,-0.7360196 1.47324,-0.7532869 2.77047,-2.4534697 2.202761,-2.886991 3.850097,-4.459681 6.493403,-6.198156 2.130574,-1.40125 2.574404,-1.779315 5.154644,-4.392969 3.36222,-3.405757 5.35911,-5.818954 6.02241,-7.277606 0.29832,-0.65599 1.07106,-1.753827 2.00236,-2.844954 1.13037,-1.324362 1.69983,-2.176126 2.23728,-3.344426 1.04962,-2.281611 1.96377,-3.146682 3.79939,-3.59741 0.82952,-0.203677 1.62584,-0.552186 1.89893,-0.830286 0.25871,-0.263453 1.22089,-0.987301 2.13798,-1.608677 2.21499,-1.500748 5.01105,-4.143485 7.61937,-7.201295 2.93852,-3.444927 7.98666,-9.755157 8.42907,-10.536563 0.30004,-0.529977 0.65187,-0.783019 1.97912,-1.424006 1.71269,-0.827142 2.37286,-1.397823 4.22277,-3.64777 0.69844,-0.849486 1.47107,-1.592322 2.21705,-2.13181 1.03179,-0.746178 1.19868,-0.938673 1.68425,-1.945605 0.30411,-0.630672 1.22752,-1.940631 2.11962,-3.007116 l 1.58046,-1.889519 0.45225,-2.605713 c 0.24861,-1.433038 0.42876,-2.985674 0.40055,-3.450501 l -0.0514,-0.845163 -1.83149,-0.688346 c -2.66213,-1.000012 -2.98072,-1.219346 -3.10245,-2.138295 -0.0744,-0.562052 -0.28238,-0.892678 -0.7269,-1.155383 -1.51666,-0.896346 -3.85462,0.187079 -7.17459,3.324198 -2.30632,2.179304 -3.5089,3.634925 -8.48378,10.269468 -4.0633,5.418893 -5.39326,6.801672 -7.91798,8.23114 -1.35173,0.76534 -1.52931,0.921932 -2.33658,2.061217 -2.08652,2.944687 -4.97497,6.34876 -7.07455,8.337603 -2.24712,2.128588 -6.98824,5.801568 -8.42608,6.52783 -0.85486,0.43179 -0.86604,0.448181 -1.64001,2.410346 -0.92585,2.347392 -1.51026,2.942773 -4.07178,4.148767 -1.032559,0.486142 -2.028835,1.13123 -2.763358,1.789165 -1.463136,1.310576 -3.98725,4.409556 -5.068079,6.222577 l -0.835939,1.402255 -2.622841,1.694916 c -3.207684,2.072217 -5.346055,3.72102 -7.969694,6.145501 -0.403354,0.372735 -0.783593,0.744412 -1.140561,1.114936 z m 61.229512,-47.58547 1.39048,-1.221394 c 0.76469,-0.671848 1.4851,-1.235957 1.60105,-1.253442 0.40316,-0.06084 1.62297,2.007406 1.54824,2.625171 -0.0407,0.336186 -0.18414,0.72323 -0.31888,0.860434 -0.54596,0.55599 -3.05671,0.174785 -3.79412,-0.576165 z" /></g></g></svg>
