<?xml version="1.0" encoding="UTF-8" standalone="no"?>
<!-- Created with Inkscape (http://www.inkscape.org/) -->

<svg
   width="138mm"
   height="12mm"
   viewBox="0 0 138 12"
   version="1.1"
   id="svg1"
   inkscape:version="1.3.2 (091e20e, 2023-11-25, custom)"
   sodipodi:docname="ikzoekniet_hor.svg"
   xml:space="preserve"
   xmlns:inkscape="http://www.inkscape.org/namespaces/inkscape"
   xmlns:sodipodi="http://sodipodi.sourceforge.net/DTD/sodipodi-0.dtd"
   xmlns="http://www.w3.org/2000/svg"
   xmlns:svg="http://www.w3.org/2000/svg"><sodipodi:namedview
     id="namedview1"
     pagecolor="#ffffff"
     bordercolor="#000000"
     borderopacity="0.25"
     inkscape:showpageshadow="2"
     inkscape:pageopacity="0.0"
     inkscape:pagecheckerboard="0"
     inkscape:deskcolor="#d1d1d1"
     inkscape:document-units="mm"
     inkscape:zoom="1.3843855"
     inkscape:cx="378.50728"
     inkscape:cy="149.88599"
     inkscape:window-width="1920"
     inkscape:window-height="991"
     inkscape:window-x="-9"
     inkscape:window-y="-9"
     inkscape:window-maximized="1"
     inkscape:current-layer="layer1" /><defs
     id="defs1"><mask
       maskUnits="userSpaceOnUse"
       id="mask75"><rect
         style="opacity:1;fill:#ffffff;fill-opacity:1;stroke:none;stroke-width:0;stroke-linecap:round;stroke-dasharray:none;stroke-opacity:1"
         id="rect75"
         width="127.64223"
         height="141.05679"
         x="55.842438"
         y="212.10524"
         transform="rotate(-12.706686)" /></mask></defs><g
     inkscape:label="Layer 1"
     inkscape:groupmode="layer"
     id="layer1"><g
       id="g32"
       transform="matrix(0,0.81414506,-0.83904895,0,116.13133,0.70805716)"
       style="fill:#c2fe08;fill-opacity:1"><path
         id="path22"
         style="fill:#c2fe08;fill-opacity:1;stroke-width:0.939505"
         d="m 8.9061822,6.4451358 c -0.1090587,-0.002 -0.1439815,0.070332 -0.1439815,0.2233018 0,0.187141 0.1496565,0.4196863 0.3324662,0.5168335 C 9.5947801,7.4510473 8.3830541,7.67761 6.3187048,7.7043557 4.1787065,7.732086 3.2484033,8.2323615 2.9710054,9.50382 c -0.1888694,0.865691 0.2584857,2.347149 0.8026311,2.657102 0.5522427,0.314564 1.7835004,0.188658 1.9571005,-0.20034 0.2436959,-0.546075 -0.2798697,-1.121458 -1.0204357,-1.121458 -0.5433319,0 -0.6515897,-0.12762 -0.7214779,-0.8504347 C 3.920777,9.2849282 4.0275892,9.0702756 4.606111,8.7443267 5.0099076,8.5167874 5.3971371,8.4378595 5.5228801,8.5574923 c 0.37743,0.3591067 0.8267153,1.7437157 0.8267153,2.5468017 0,1.018185 0.7963112,1.694117 1.9953209,1.694117 0.6499515,0 1.0464947,-0.151596 1.3403363,-0.512332 C 10.16514,11.69695 10.233517,10.127485 9.8198098,9.1918294 9.6139485,8.7262354 9.6236375,8.4121418 9.8554125,8.039758 10.240205,7.4215128 10.054704,6.9230886 9.3135187,6.5819983 9.1207563,6.4933008 8.9910056,6.4466848 8.9061822,6.4451358 Z M 7.3464705,8.4188291 c 0.475552,0 1.0167239,0.2109395 1.3691326,0.5334916 0.8440275,0.7725334 0.6977293,3.1545783 -0.1937205,3.1545783 -0.5410917,0 -1.3046419,-0.892286 -1.4796056,-1.728783 C 6.9362106,9.871001 6.7842099,9.2227108 6.7045751,8.9374642 6.5794216,8.4891373 6.6666157,8.4188291 7.3464705,8.4188291 Z" /><path
         id="path16"
         style="fill:#c2fe08;fill-opacity:1;stroke-width:0.939505"
         d="m 8.7129852,63.739862 c -0.6375694,0 -0.6179739,0.48621 0.049216,1.21555 0.5994248,0.655264 0.6844485,1.480114 0.2387474,2.321251 C 8.6708393,67.899652 7.5355914,68.52395 7.2213376,68.255405 7.1105387,68.160721 6.9594479,67.131987 6.8857299,65.969271 6.7587224,63.966071 6.7190613,63.85109 6.1234136,63.77858 c -1.0851378,-0.132105 -2.1010612,0.4056 -2.7476894,1.453708 -0.5606884,0.908807 -0.5837214,1.076926 -0.2701616,1.976844 0.5334434,1.530986 1.4031057,2.062833 3.3738778,2.062833 1.5413881,0 2.6868653,-0.494129 3.3660243,-1.451907 0.2878033,-0.405871 0.5235413,-1.086676 0.5240923,-1.513134 0.0013,-0.99487 -1.0131715,-2.567062 -1.6565718,-2.567062 z m -3.315238,0.922018 c 0.6725501,0 0.683781,0.02864 0.683781,1.735985 0,1.391132 -0.086428,1.76466 -0.4361329,1.880051 C 5.3656671,68.370215 5.0282916,68.222829 4.7061127,67.86733 3.9555953,67.039192 3.8532905,66.433391 4.306106,65.501509 4.6241917,64.8469 4.8645115,64.66188 5.3977472,64.66188 Z" /><path
         id="path12"
         style="fill:#c2fe08;fill-opacity:1;stroke-width:0.939505"
         d="m 8.5868051,96.701979 c -0.5429346,0 -0.4331213,0.794244 0.1753956,1.267775 0.8460995,0.658416 0.7266441,2.061996 -0.2471245,2.899306 -1.3694739,1.17758 -1.5819454,0.90157 -1.6958395,-2.205093 C 6.741936,96.555461 6.5476964,96.401259 4.8364813,97.094105 2.8157358,97.912272 2.332649,100.1986 3.8966752,101.54347 c 1.5258035,1.312 4.7865368,1.01316 5.9058569,-0.54115 0.2881689,-0.40016 0.5338739,-1.059801 0.5460819,-1.465857 0.0363,-1.206722 -0.9754821,-2.834484 -1.7618089,-2.834484 z M 5.2548129,97.66541 c 0.046439,-0.0017 0.094813,1.3e-4 0.1450285,0.0061 0.4845013,0.05959 0.5558222,0.254642 0.6167642,1.681063 0.07449,1.743467 -0.1372908,2.285547 -0.8068196,2.064627 -0.4163477,-0.13738 -1.272796,-1.428427 -1.272796,-1.918763 0,-0.135009 0.2061404,-0.616259 0.4575992,-1.069682 0.2932372,-0.528765 0.5351447,-0.7497 0.8602237,-0.763552 z" /><path
         id="path3"
         style="fill:#c2fe08;fill-opacity:1;stroke-width:0.939505"
         d="m 6.9407046,103.60855 c -1.3499034,0.01 -2.7356473,0.32602 -2.7356473,0.72798 0,0.1114 -0.2412615,0.41005 -0.5361345,0.6636 -1.1022899,0.94784 -0.4227488,3.59967 1.095306,4.27469 0.4151086,0.18458 1.3755188,0.3354 2.1345904,0.3354 1.1817726,0 1.4864936,-0.0973 2.1173124,-0.67801 0.4051846,-0.37297 0.9334174,-1.02127 1.1743644,-1.44065 0.240951,-0.41939 0.380382,-0.90085 0.30943,-1.06968 -0.07094,-0.16884 -0.129322,-0.50391 -0.129322,-0.74509 0,-0.59841 -1.3236226,-1.81244 -2.1445378,-1.96694 -0.3893257,-0.0733 -0.8353938,-0.10448 -1.2853616,-0.1013 z m 0.1460758,0.48442 c 0.041639,-0.007 0.061233,0.0453 0.062828,0.15802 0.00226,0.15847 0.1624553,0.28813 0.3560268,0.28813 0.1935706,0 0.6760925,0.29092 1.0722691,0.6465 0.9841191,0.88326 0.9547439,1.84054 -0.085865,2.77685 -0.9728445,0.87535 -2.2443607,0.97061 -3.3126203,0.24807 -0.5694563,-0.38517 -0.7062943,-0.67177 -0.7062943,-1.47937 0,-1.39911 0.1773733,-1.66975 1.2974037,-1.98361 0.5398505,-0.15128 1.0697102,-0.38979 1.1780299,-0.52988 0.059923,-0.0775 0.1058364,-0.11915 0.1382221,-0.12471 z" /><path
         style="fill:#c2fe08;fill-opacity:1;stroke-width:0.939505"
         d="m 1.9936275,42.478832 c -0.5506576,0.38155 -1.54138759,-0.07884 -1.54138759,-0.716342 0,-0.781081 0.61493499,-1.176247 1.32320089,-0.850306 0.6164923,0.283705 0.7443885,1.202035 0.2181867,1.566648 z"
         id="path32" /><path
         style="fill:#c2fe08;fill-opacity:1;stroke-width:0.939505"
         d="M 2.1627039,74.639611 C 1.458367,75.24525 0.2996204,74.436439 0.56568936,73.524888 c 0.1407847,-0.48233 0.3099381,-0.580244 0.90115274,-0.52163 0.591697,0.05863 0.7427471,0.203059 0.8075564,0.77196 0.04385,0.384886 -0.00638,0.773867 -0.1116946,0.864393 z"
         id="path31" /><path
         style="fill:#c2fe08;fill-opacity:1;stroke-width:0.939505"
         d="m 2.1585499,35.601739 c -0.9511435,0.643336 -1.31323844,0.602163 -1.69621174,-0.192856 -0.44771066,-0.929411 0.0077,-1.634445 1.05580574,-1.634445 0.7464198,0 1.4823817,0.453571 0.7593944,0.468016 -0.2165362,0.0044 -0.1712699,0.09697 0.1182134,0.241957 0.640866,0.320967 0.5906797,0.557366 -0.2372018,1.117328 z"
         id="path30" /><path
         style="fill:#c2fe08;fill-opacity:1;stroke-width:0.939505"
         d="M 10.203586,20.578063 C 9.9648533,21.050565 9.3025507,20.905407 9.0455952,20.324266 8.760272,19.678961 7.4513415,19.496166 4.0711722,19.629547 1.4806536,19.731773 1.256465,19.794325 1.256465,20.414853 c 0,0.339941 -0.1404028,0.46034 -0.46911686,0.402266 -0.34322573,-0.06064 -0.45794771,-0.286127 -0.42749493,-0.840252 0.0228976,-0.416554 0.1095376,-0.815763 0.19254237,-0.88714 0.0830088,-0.07135 1.38754822,-0.173133 2.89898452,-0.226137 1.5114364,-0.05297 2.7842454,-0.127474 2.8284651,-0.165501 0.1868494,-0.160667 -1.7772085,-1.779003 -2.1109053,-1.739337 -0.7946963,0.09447 -0.9049249,-0.06194 -0.9845598,-1.396887 -0.065684,-1.101141 0.00527,-1.413474 0.3466451,-1.52612 0.5718977,-0.18871 0.7039063,-0.03964 0.7325698,0.827254 0.015076,0.455959 0.2997974,0.982554 0.7605738,1.406697 0.6797727,0.625728 1.5856711,0.91176 1.5995353,0.50505 0.00324,-0.09508 0.5458147,-0.484063 1.2057191,-0.864393 0.9150403,-0.52738 1.1999643,-0.836114 1.2004091,-1.300741 6.069e-4,-0.633282 0.7039651,-1.067949 1.1322227,-0.699703 0.130781,0.112463 0.201083,0.816016 0.156225,1.563469 l -0.08156,1.358989 -1.0343321,-0.07074 C 7.693215,16.658441 6.5751339,17.64549 7.4890303,18.27419 c 0.6492267,0.446628 1.5413866,0.571331 1.5413866,0.215447 0,-0.511854 0.7058222,-0.942444 0.8853656,-0.540116 0.2463785,0.552078 0.4406175,2.32608 0.2878045,2.628524 z"
         id="path21" /><path
         style="fill:#c2fe08;fill-opacity:1;stroke-width:0.939505"
         d="m 6.8858785,30.316873 c -0.1474372,0 -0.268068,0.103725 -0.268068,0.230502 0,0.126776 0.1206308,0.230501 0.268068,0.230501 0.1474361,0 0.2680669,-0.103725 0.2680669,-0.230501 0,-0.126777 -0.1206308,-0.230502 -0.2680669,-0.230502 z"
         id="path20" /><path
         style="fill:#c2fe08;fill-opacity:1;stroke-width:0.939505"
         d="M 9.9730954,31.927229 C 9.643518,32.162427 9.5299176,32.108064 9.3095618,31.609695 9.0534128,31.030375 8.964789,31.008386 6.886767,31.008386 c -2.0494101,0 -2.1723772,0.02918 -2.4670317,0.585244 -0.427577,0.80693 -1.131459,0.637682 -1.2366217,-0.297348 -0.068591,-0.609864 0.039574,-0.793957 0.5942046,-1.011251 L 4.4553796,30.019377 3.794159,29.343676 C 3.3385842,28.878117 3.1329375,28.388365 3.1329375,27.768952 c 0,-1.28134 0.8130964,-1.690802 3.3863496,-1.70529 1.0862686,-0.0061 1.9750263,0.07283 1.9750152,0.175363 -3.75e-5,0.352199 0.569311,-0.116296 0.8140822,-0.669881 0.3363281,-0.76066 0.6946945,-0.693996 0.8948265,0.166451 0.266586,1.146147 0.196182,1.968845 -0.192206,2.246008 -0.4410804,0.314772 -0.7125202,0.112428 -0.7125202,-0.531135 0,-0.455514 -0.1336966,-0.483079 -2.2329869,-0.460419 -1.2281425,0.01324 -2.3741303,0.09911 -2.5466393,0.190793 -0.585465,0.31113 -0.3229198,1.290069 0.5709148,2.128744 0.8014106,0.751948 1.017505,0.829972 2.2986848,0.829972 1.1359433,0 1.49225,-0.09592 1.8113066,-0.4876 0.2184531,-0.268189 0.5712928,-0.487609 0.7840884,-0.487609 0.5494568,0 0.5402298,2.369683 -0.01076,2.76288 z"
         id="path19" /><path
         style="fill:#c2fe08;fill-opacity:1;stroke-width:0.939505"
         d="m 9.9602383,52.445286 c -0.2257824,0 -0.4799497,-0.155595 -0.5648146,-0.34576 C 9.1603232,51.572713 4.794503,51.603144 4.3424418,52.134722 3.8043556,52.76749 3.3403511,52.28361 3.5350374,51.292745 3.63942,50.76148 3.5942165,50.358159 3.4199182,50.265525 3.0572681,50.072798 3.0440746,49.062131 3.4017319,48.872062 c 0.1796782,-0.09548 0.1796782,-0.286023 0,-0.574712 -0.4643408,-0.74605 -0.3164893,-1.576388 0.3343584,-1.87777 0.3568235,-0.165231 1.4465673,-0.258345 2.6683157,-0.227983 1.7710788,0.04399 2.14327,-0.01586 2.6136553,-0.420327 0.870775,-0.748759 1.3533427,-0.608218 1.3485907,0.392753 -0.0058,1.217307 -0.357949,1.639959 -1.0563486,1.267775 -0.6737098,-0.359029 -4.4658563,-0.387561 -4.7188929,-0.03554 -0.099868,0.138939 0.00314,0.411467 0.2289282,0.605605 0.5160732,0.443753 4.0470707,0.707569 4.3234658,0.323022 0.4397928,-0.611885 0.9588845,-0.253091 0.9588845,0.662781 0,0.6659 -0.111695,0.922014 -0.4021013,0.922014 -0.2211562,0 -0.4021008,-0.103725 -0.4021008,-0.230501 0,-0.136595 -0.9829134,-0.230502 -2.4126054,-0.230502 -2.5834953,0 -2.9500553,0.201831 -1.8795302,1.034887 0.4543479,0.353567 0.8188562,0.391987 2.4681492,0.260183 1.06429,-0.08503 2.030709,-0.28158 2.1475972,-0.436731 0.3314243,-0.439894 0.7397323,0.258658 0.7445543,1.273821 0.0029,0.624091 -0.11002,0.864393 -0.4064107,0.864393 z"
         id="path18" /><path
         style="fill:#c2fe08;fill-opacity:1;stroke-width:0.939505"
         d="m 10.192036,84.101206 c -0.3637466,0.312786 -0.8935522,0.139767 -0.8935522,-0.291798 0,-0.540343 -0.4422162,-0.658443 -2.5959816,-0.693299 -1.6579353,-0.02683 -1.8261768,0.03798 -2.5998063,1.00111 -0.4642425,0.57797 -0.9697594,0.283191 -0.9697594,-0.565503 0,-0.42632 0.1980003,-0.782283 0.5361348,-0.963858 0.6654262,-0.357339 0.6654262,-0.439301 0,-1.099033 -0.7297045,-0.723459 -0.7156934,-2.093862 0.027315,-2.672058 0.4285193,-0.333459 1.0704765,-0.458267 2.6806723,-0.521141 1.4258754,-0.05567 2.1172204,5.66e-4 2.1172204,0.172235 0,0.140202 0.1277493,0.254913 0.2838875,0.254913 0.1561383,0 0.2093336,-0.103725 0.1182134,-0.230502 -0.091124,-0.126776 -0.037923,-0.23051 0.1182123,-0.23051 0.1561383,0 0.2838886,-0.207449 0.2838886,-0.461003 0,-0.926832 0.7677162,-0.48185 0.9475282,0.549194 0.228307,1.309131 0.09488,1.847531 -0.4814894,1.94298 -0.3466431,0.05741 -0.4660388,-0.0771 -0.4660388,-0.524958 v -0.602136 l -2.3172633,0.06665 c -1.8762182,0.05393 -2.3736754,0.144567 -2.6136552,0.47624 -0.4077605,0.56356 0.5530365,2.001698 1.6682604,2.497078 0.459584,0.204148 0.758437,0.437533 0.6641182,0.518642 -0.094316,0.08111 -0.04081,0.147458 0.1189175,0.147458 0.1597229,0 0.3323494,-0.108202 0.3836127,-0.240441 0.051266,-0.132239 0.4390875,-0.272145 0.8618307,-0.310905 0.4227442,-0.03877 0.9774524,-0.308525 1.2326866,-0.599479 0.2581247,-0.294256 0.5993443,-0.457117 0.7689116,-0.367001 0.323132,0.171722 0.429412,2.486398 0.126138,2.747182 z"
         id="path15" /><path
         style="fill:#c2fe08;fill-opacity:1;stroke-width:0.939505"
         d="M 10.203586,95.722465 C 9.9648533,96.194968 9.3025507,96.049809 9.0455952,95.468668 8.760272,94.823372 7.4513415,94.640569 4.0711722,94.773949 1.4806536,94.876176 1.256465,94.938728 1.256465,95.559255 c 0,0.33995 -0.1404028,0.460341 -0.46911686,0.402267 -0.34322573,-0.06064 -0.45794771,-0.286119 -0.42749493,-0.840244 0.0228976,-0.416554 0.1095376,-0.815772 0.19254237,-0.887149 0.0830088,-0.07135 1.38754822,-0.173133 2.89898452,-0.226136 1.5114364,-0.05297 2.7842454,-0.127474 2.8284651,-0.165502 0.1868494,-0.160666 -1.7772085,-1.779002 -2.1109053,-1.739328 -0.7946963,0.09446 -0.9049249,-0.06194 -0.9845598,-1.396887 -0.065684,-1.101149 0.00527,-1.413482 0.3466451,-1.526128 0.5718977,-0.188702 0.7039063,-0.03964 0.7325698,0.827254 0.015076,0.455958 0.2997974,0.982554 0.7605738,1.406696 0.6797727,0.625729 1.5856711,0.911769 1.5995353,0.505051 0.00324,-0.09508 0.5458147,-0.484064 1.2057191,-0.864394 0.9150403,-0.527379 1.1999643,-0.836114 1.2004091,-1.300741 6.069e-4,-0.633273 0.7039651,-1.06794 1.1322227,-0.699693 0.130781,0.112454 0.201083,0.816007 0.156225,1.563459 l -0.08156,1.35899 -1.0343321,-0.07074 c -1.5091729,-0.103184 -2.627254,0.883865 -1.7133576,1.512573 0.6492267,0.446628 1.5413866,0.571323 1.5413866,0.215439 0,-0.511846 0.7058222,-0.942435 0.8853656,-0.540116 0.2463785,0.552086 0.4406175,2.326079 0.2878045,2.628524 z"
         id="path14" /><path
         style="fill:#c2fe08;fill-opacity:1;stroke-width:0.939505"
         d="m 10.099479,116.18143 c -0.3944303,0.20961 -1.3890518,-0.38627 -3.5279135,-2.1136 -0.9949518,-0.8035 -1.9407134,-1.46092 -2.1016916,-1.46092 -0.1846315,0 -0.2627731,0.44629 -0.2116608,1.20887 0.076535,1.14183 0.1254453,1.21543 0.8819543,1.32718 0.4760905,0.0703 0.8374083,0.28118 0.8908742,0.51991 0.07463,0.33323 -0.1131749,0.4016 -1.1031885,0.4016 -1.4948427,0 -2.0974434,-0.48302 -1.4134256,-1.13294 0.2677873,-0.25443 0.3393494,-0.46638 0.173659,-0.51431 -0.1550035,-0.0449 -0.3602257,-0.7275 -0.456048,-1.51703 -0.1441545,-1.18773 -0.1011547,-1.4596 0.2491561,-1.57518 0.5790172,-0.19106 1.038972,0.0654 2.8370902,1.58209 0.8653069,0.72987 1.8329042,1.33189 2.1964156,1.36658 0.5879249,0.0561 0.6576846,-0.0328 0.7331473,-0.93467 0.099696,-1.19148 -0.275695,-1.65412 -1.3421796,-1.65412 -0.5965014,0 -0.7697064,-0.0952 -0.7043085,-0.38723 0.068125,-0.30419 0.4029236,-0.39069 1.5610431,-0.40338 l 1.4743163,-0.0161 0.0756,2.57501 c 0.04865,1.65725 -0.0272,2.62964 -0.21284,2.72829 z"
         id="path11" /><path
         style="fill:#c2fe08;fill-opacity:1;stroke-width:0.939505"
         d="M 9.9848643,127.80862 C 9.5099441,128.14754 9.3649669,128.07945 8.9139664,127.30564 8.6208621,126.80275 8.47766,126.78293 5.1373508,126.78293 H 1.6653906 l -0.3531234,0.63388 c -0.1942181,0.34863 -0.45904291,0.63389 -0.58849938,0.63389 -0.40381619,0 -0.56557346,-0.8332 -0.28496555,-1.46784 0.2662797,-0.60223 0.28907293,-0.6067 3.08959983,-0.6067 1.5517382,0 2.8213415,-0.0834 2.8213415,-0.18529 0,-0.38187 -1.7896278,-1.65875 -2.3248417,-1.65875 -0.4092539,0 -0.6012968,-0.19095 -0.724424,-0.72032 -0.2873201,-1.2353 -0.1930489,-2.21849 0.2259749,-2.35675 0.4866852,-0.1606 0.655333,0.0607 0.7869577,1.03281 0.065755,0.48564 0.4054261,0.9907 0.9451476,1.40536 l 0.8424995,0.64729 1.2351607,-0.81096 c 0.679338,-0.44603 1.3308007,-0.81095 1.4476949,-0.81095 0.1168942,0 0.2503345,-0.33712 0.2965359,-0.74915 0.064377,-0.57417 0.2248695,-0.76634 0.6871526,-0.82279 0.5665903,-0.0692 0.6029023,0.008 0.5990473,1.26777 -0.0048,1.54325 -0.3189,2.19316 -0.842549,1.74289 -0.4732121,-0.4069 -1.1242178,-0.35454 -1.7930037,0.14422 -0.7049032,0.52569 -0.7216347,0.76872 -0.08693,1.26263 0.6651071,0.51757 1.1861853,0.47937 1.6206285,-0.1188 0.4534583,-0.62436 0.7063977,-0.30986 0.9691392,1.205 0.142365,0.82083 0.08791,1.11777 -0.2490739,1.35825 z"
         id="path10" /><path
         style="fill:#c2fe08;fill-opacity:1;stroke-width:0.939505"
         d="m 10.126876,133.9157 c -0.518752,0.27568 -1.0948684,-0.14284 -0.9377251,-0.68122 0.085207,-0.29192 0.019787,-0.74788 -0.1453724,-1.01324 -0.2818216,-0.4528 -0.5213446,-0.48247 -3.8939485,-0.48247 -2.5420588,0 -3.6529059,0.0824 -3.7961323,0.2817 -0.1113624,0.15494 -0.1695719,0.67357 -0.1293552,1.15252 0.053485,0.63698 -0.03154,0.87082 -0.31665538,0.87082 -0.82476605,0 -1.02199229,-0.61548 -0.92459548,-2.88534 0.07668666,-1.78724 0.18491424,-2.27489 0.54312977,-2.44727 0.45405003,-0.21849 0.55242459,-0.0573 0.78914209,1.29274 0.1059347,0.60419 1.6956048,0.84127 5.0343801,0.75084 l 2.5466393,-0.069 0.077345,-0.79892 c 0.1236328,-1.27699 0.2387287,-1.43098 0.8569109,-1.1465 0.4883162,0.22471 0.5401122,0.47858 0.5401122,2.64714 0,1.31922 -0.109744,2.4569 -0.243877,2.52818 z"
         id="path9" /><path
         style="fill:#c2fe08;fill-opacity:1;stroke-width:0.939505"
         d="m 10.335165,3.7512515 c -0.186838,0.1584708 -0.4864724,0.2881224 -0.6658537,0.2881224 -0.1793824,0 -0.3767768,0.1296603 -0.438656,0.2881311 -0.078784,0.201778 -0.8085807,0.2856743 -2.4349437,0.2799157 -2.1941907,-0.00784 -2.3224375,0.018905 -2.3224375,0.4829134 0,0.2701148 -0.2316607,0.671397 -0.5148006,0.8917315 C 3.4677965,6.363894 3.4301117,6.3608797 3.1542718,5.9176841 2.9951011,5.6619442 2.8648696,5.3013904 2.8648696,5.1164526 2.8648696,4.7096732 2.2916903,4.4918738 1.6174059,4.6424341 0.99794716,4.7807542 0.0364339,4.2009287 0.29309763,3.8438337 0.39804153,3.697821 0.95218846,3.5783624 1.5245339,3.5783624 c 1.2076553,0 1.3278565,-0.1188226 1.5655365,-1.5475863 0.2197864,-1.32118824 0.6664018,-1.32946462 0.8540233,-0.015856 0.2015565,1.4112178 0.3859114,1.5633985 1.8939466,1.5633985 1.8767238,0 3.2566661,-0.5278846 3.1447364,-1.2029929 C 8.9330201,2.075242 8.6718356,1.8174024 8.3669329,1.7673696 7.7753991,1.6703095 7.175461,1.0937946 7.1624722,0.60992288 7.1505675,0.16656182 9.2799702,0.4682749 9.8815982,0.99520991 10.483075,1.5219968 10.786889,3.3680553 10.335165,3.7511992 Z"
         id="path8" /><path
         style="fill:#c2fe08;fill-opacity:1;stroke-width:0.939505"
         d="M 10.253068,44.135457 C 9.6627095,44.55676 9.5180312,44.361324 9.4064307,42.991784 9.3536852,42.34445 9.2408244,41.717841 9.1556373,41.599324 8.9736147,41.346075 4.865062,41.42836 4.5591786,41.691383 c -0.1148426,0.09875 -0.2113103,0.717623 -0.2143721,1.375272 -0.00426,0.907073 -0.1026369,1.195727 -0.4076682,1.195727 -0.5654519,0 -0.7284878,-2.918093 -0.1847177,-3.306142 0.2056953,-0.146796 1.4773919,-0.334243 2.8259929,-0.416554 l 2.4520024,-0.149654 v -0.787406 c 0,-0.949117 0.4120015,-1.679111 0.9476673,-1.679111 0.4837738,0 0.4951978,0.395184 0.033323,1.152516 -0.2896496,0.474951 -0.2897793,0.731318 -7.4e-4,1.458201 0.19289,0.485066 0.348999,1.107432 0.346911,1.383026 -0.0021,0.275595 0.07061,0.818168 0.161552,1.205711 0.117111,0.499066 0.03949,0.794445 -0.266057,1.012488 z"
         id="path7" /><path
         style="fill:#c2fe08;fill-opacity:1;stroke-width:0.939505"
         d="M 9.5763106,60.880498 C 8.399101,61.550379 7.7227438,61.634302 5.7465918,61.35571 4.5224827,61.183135 4.4732731,61.19764 4.4732731,61.730857 c 0,0.305067 -0.2316607,0.734933 -0.5148006,0.955267 -0.490677,0.381829 -0.5283618,0.378814 -0.8042017,-0.06438 -0.1591707,-0.25574 -0.2894023,-0.627393 -0.2894023,-0.825886 0,-0.265498 -0.2748075,-0.360911 -1.0394451,-0.360911 -0.604247,0 -1.1814172,-0.147093 -1.37853605,-0.351328 -0.44708958601,-0.463224 -0.2928875,-0.56106 1.06777425,-0.677452 0.6276118,-0.05367 1.2003747,-0.148574 1.272805,-0.210856 0.072431,-0.06229 0.2099496,-0.642168 0.3055977,-1.288631 0.2109425,-1.425715 0.677877,-1.536505 0.7954875,-0.188754 0.128575,1.473404 0.4027159,1.637642 2.5164783,1.50759 0.997345,-0.06133 2.0018835,-0.246105 2.2323061,-0.410543 0.6066048,-0.43289 0.388182,-1.245595 -0.359251,-1.336696 -0.6047475,-0.0737 -1.3730994,-1.055168 -1.0461512,-1.336304 0.2771611,-0.238324 1.9955683,0.134174 2.5586301,0.55464 0.3165979,0.236408 0.6002149,0.832664 0.7037199,1.479441 0.17128,1.070275 0.160149,1.090948 -0.9179734,1.704436 z"
         id="path6" /><path
         style="fill:#c2fe08;fill-opacity:1;stroke-width:0.939505"
         d="m 10.271289,76.16256 c -0.5660589,0.403957 -0.9804627,0.124494 -0.9227405,-0.62227 0.026393,-0.341457 0.025927,-0.906089 -0.00101,-1.254725 l -0.04903,-0.633883 h -2.41263 c -1.7386686,0 -2.4192599,0.0805 -2.436426,0.288131 -0.0131,0.158471 -0.00355,0.79001 0.021135,1.403421 0.038966,0.966776 -0.020334,1.104599 -0.4452963,1.034956 -0.4027169,-0.06595 -0.5046101,-0.340752 -0.5706676,-1.538805 -0.044225,-0.802155 0.045795,-1.589221 0.2000479,-1.749042 0.1752344,-0.181557 1.0547237,-0.303246 2.3440544,-0.324312 2.8386059,-0.04635 3.0316923,-0.120303 3.0316923,-1.160367 0,-1.051549 0.6113068,-1.890161 1.0851668,-1.488668 0.243807,0.206574 0.218722,0.438132 -0.108581,1.00229 -0.3776224,0.650894 -0.3816507,0.824176 -0.035714,1.536112 0.21446,0.441349 0.388252,1.027586 0.386205,1.302754 -0.002,0.275159 0.07069,0.817374 0.161629,1.204918 0.115046,0.490258 0.03965,0.794332 -0.247835,0.99949 z"
         id="path5" /><path
         style="fill:#c2fe08;fill-opacity:1;stroke-width:0.939505"
         d="m 12.644444,37.465989 c -0.223839,0.159734 -0.85715,0.302096 -1.407352,0.316349 -0.851236,0.02204 -1.013432,-0.05332 -1.087967,-0.505399 -0.127322,-0.772282 0.450576,-1.261816 1.314251,-1.113286 0.977968,0.168185 1.120632,-0.02831 0.585822,-0.806772 -0.546202,-0.795072 -1.349752,-0.953221 -4.0910508,-0.805135 -1.1057772,0.05976 -2.3422378,0.116723 -2.7476893,0.126655 -0.6514445,0.01594 -0.7371848,0.106756 -0.7371848,0.780758 0,0.888831 -0.6803177,1.884522 -0.89632,1.311832 -0.071722,-0.190165 -0.1966376,-0.825756 -0.2775846,-1.41242 -0.2332058,-1.690175 0.078713,-1.815471 4.4074959,-1.770465 1.9811682,0.02056 3.8040616,0.122247 4.0508756,0.225884 1.110938,0.466474 1.737045,3.045166 0.886704,3.651999 z"
         id="path2" /></g></g></svg>
