<?xml version="1.0" encoding="UTF-8" standalone="no"?>
<!-- Created with Inkscape (http://www.inkscape.org/) -->

<svg
   width="235mm"
   height="32mm"
   viewBox="0 0 235 32"
   version="1.1"
   id="svg1"
   xml:space="preserve"
   inkscape:version="1.3.2 (091e20e, 2023-11-25, custom)"
   sodipodi:docname="iznmk_header.svg"
   inkscape:export-filename="ikzoeknnietmijnkat05.png"
   inkscape:export-xdpi="96"
   inkscape:export-ydpi="96"
   xmlns:inkscape="http://www.inkscape.org/namespaces/inkscape"
   xmlns:sodipodi="http://sodipodi.sourceforge.net/DTD/sodipodi-0.dtd"
   xmlns="http://www.w3.org/2000/svg"
   xmlns:svg="http://www.w3.org/2000/svg"><sodipodi:namedview
     id="namedview1"
     pagecolor="#ffffff"
     bordercolor="#000000"
     borderopacity="0.25"
     inkscape:showpageshadow="2"
     inkscape:pageopacity="0.0"
     inkscape:pagecheckerboard="0"
     inkscape:deskcolor="#d1d1d1"
     inkscape:document-units="mm"
     inkscape:zoom="0.9789084"
     inkscape:cx="311.06077"
     inkscape:cy="253.85419"
     inkscape:window-width="1920"
     inkscape:window-height="991"
     inkscape:window-x="-9"
     inkscape:window-y="-9"
     inkscape:window-maximized="1"
     inkscape:current-layer="layer1"
     showguides="false" /><defs
     id="defs1"><mask
       maskUnits="userSpaceOnUse"
       id="mask154"><path
         style="opacity:0.97561;fill:#ffffff;fill-opacity:1;stroke:none;stroke-width:0;stroke-dasharray:none;stroke-opacity:0.52381"
         d="m 165.95441,534.89214 c -9.45994,-7.02738 -13.24392,-18.91987 -24.86613,-18.3793 -11.62222,0.54057 -36.75863,-6.48682 -30.27182,0.81084 6.48682,7.29768 20.54159,18.6496 16.48733,24.32558 -4.05426,5.67597 -1.89199,15.13591 13.5142,16.7576 15.40619,1.62171 21.89301,-14.59532 25.13642,-23.51472 z"
         id="path155" /></mask><mask
       maskUnits="userSpaceOnUse"
       id="mask156"><path
         style="opacity:0.97561;fill:#ffffff;fill-opacity:1;stroke:none;stroke-width:0;stroke-dasharray:none;stroke-opacity:0.52381"
         d="m -170.16525,161.96825 c 3.65593,-0.81244 2.23418,-0.60932 3.0466,-1.42175 0.81243,-0.81244 4.46838,-11.17092 4.46838,-11.17092 0,0 -0.81243,-3.65593 1.21864,-3.04662 2.03108,0.60932 12.59269,-0.20308 24.16982,-2.64038 11.57715,-2.4373 7.10877,-9.13985 20.71699,-7.10878 13.60821,2.03106 5.4839,13.81133 7.51498,21.1232 2.03108,7.31187 -7.10877,27.62264 -4.06216,31.27861 3.04662,3.65593 -10.35848,4.67144 -10.35848,4.67144 l -36.96561,-1.01551 c 0,0 5.4839,-4.06217 2.64041,-6.49947 -2.84351,-2.43726 -2.23418,-4.77304 -3.65595,-8.22586 -1.42174,-3.45285 -0.60933,-4.16369 -3.45282,-7.81962 -2.84351,-3.65593 -5.89012,-5.28084 -5.2808,-8.12434 z"
         id="path157"
         sodipodi:nodetypes="cscsssssccsssc" /></mask><mask
       maskUnits="userSpaceOnUse"
       id="mask156-9"><path
         style="opacity:0.97561;fill:#ffffff;fill-opacity:1;stroke:none;stroke-width:0;stroke-dasharray:none;stroke-opacity:0.52381"
         d="m -170.16525,161.96825 c 3.65593,-0.81244 2.23418,-0.60932 3.0466,-1.42175 0.81243,-0.81244 4.46838,-11.17092 4.46838,-11.17092 0,0 -0.81243,-3.65593 1.21864,-3.04662 2.03108,0.60932 12.59269,-0.20308 24.16982,-2.64038 11.57715,-2.4373 7.10877,-9.13985 20.71699,-7.10878 13.60821,2.03106 5.4839,13.81133 7.51498,21.1232 2.03108,7.31187 -7.10877,27.62264 -4.06216,31.27861 3.04662,3.65593 -10.35848,4.67144 -10.35848,4.67144 l -36.96561,-1.01551 c 0,0 5.4839,-4.06217 2.64041,-6.49947 -2.84351,-2.43726 -2.23418,-4.77304 -3.65595,-8.22586 -1.42174,-3.45285 -0.60933,-4.16369 -3.45282,-7.81962 -2.84351,-3.65593 -5.89012,-5.28084 -5.2808,-8.12434 z"
         id="path157-2"
         sodipodi:nodetypes="cscsssssccsssc" /></mask><mask
       maskUnits="userSpaceOnUse"
       id="mask157"><path
         style="opacity:0.97561;fill:#ffffff;fill-opacity:1;stroke:none;stroke-width:0;stroke-dasharray:none;stroke-opacity:0.52381"
         d="m -170.16526,161.96826 c 3.65594,-0.81246 2.23418,-0.60931 3.0466,-1.42178 0.81244,-0.81243 4.46839,-11.17091 4.46839,-11.17091 0,0 -0.81243,-3.65593 1.21864,-3.04663 2.03107,0.60935 5.5237,-1.2145 16.98881,-0.12657 9.51538,0.90293 -7.60051,17.60757 -6.8225,25.76643 0.74152,7.77604 2.84105,12.32912 5.88766,15.98509 3.04662,3.65592 2.31091,4.61538 2.31091,4.61538 l -17.34934,0.0683 c 0,0 5.4839,-4.0622 2.64041,-6.49952 -2.8435,-2.43723 -2.23419,-4.773 -3.65594,-8.22582 -1.42175,-3.45286 -0.60934,-4.1637 -3.45283,-7.81964 -2.84351,-3.65591 -5.89012,-5.28085 -5.28081,-8.12432 z"
         id="path158"
         sodipodi:nodetypes="cscssssccssscc" /></mask><mask
       maskUnits="userSpaceOnUse"
       id="mask157-8"><path
         style="opacity:0.97561;fill:#ffffff;fill-opacity:1;stroke:none;stroke-width:0;stroke-dasharray:none;stroke-opacity:0.52381"
         d="m -170.16526,161.96826 c 3.65594,-0.81246 2.23418,-0.60931 3.0466,-1.42178 0.81244,-0.81243 4.46839,-11.17091 4.46839,-11.17091 0,0 -0.81243,-3.65593 1.21864,-3.04663 2.03107,0.60935 5.5237,-1.2145 16.98881,-0.12657 9.51538,0.90293 -7.60051,17.60757 -6.8225,25.76643 0.74152,7.77604 2.84105,12.32912 5.88766,15.98509 3.04662,3.65592 2.31091,4.61538 2.31091,4.61538 l -17.34934,0.0683 c 0,0 5.4839,-4.0622 2.64041,-6.49952 -2.8435,-2.43723 -2.23419,-4.773 -3.65594,-8.22582 -1.42175,-3.45286 -0.60934,-4.1637 -3.45283,-7.81964 -2.84351,-3.65591 -5.89012,-5.28085 -5.28081,-8.12432 z"
         id="path158-9"
         sodipodi:nodetypes="cscssssccssscc" /></mask><mask
       maskUnits="userSpaceOnUse"
       id="mask257"><path
         style="fill:#ffffff;fill-opacity:0.99793;stroke:none;stroke-width:0;stroke-dasharray:none;stroke-opacity:0.52381"
         d="m 325.15585,328.15816 c 1.12916,2.78085 1.79067,6.01575 0.93766,8.88426 -0.9207,3.09599 -4.72475,3.78049 -7.56531,4.12916 -5.5286,0.53584 -12.48656,-1.76797 -14.56444,-7.57229 -1.40804,-3.93309 3.88427,-11.48345 9.42882,-12.16242 2.78162,-0.3406 9.32995,0.42259 11.76327,6.72129 z"
         id="path258"
         sodipodi:nodetypes="cscssc" /></mask><mask
       maskUnits="userSpaceOnUse"
       id="mask1202"><path
         style="opacity:1;fill:#ffffff;fill-opacity:1;stroke:none;stroke-width:0;stroke-dasharray:none;stroke-opacity:0.52381"
         d="m 245.59865,566.6345 c -5.94624,1.08114 -13.78447,0 -17.29817,-4.05426 -3.51369,-4.05426 -9.45993,-9.45994 -20.81186,-7.83823 -11.35194,1.62168 -16.48735,8.1085 -19.46047,5.94625 -2.97312,-2.16228 -14.86562,-7.02739 -12.43306,-2.70286 2.43255,4.32457 0.2703,5.13541 -2.16228,7.02739 -2.43256,1.89198 -9.18964,9.18967 -13.51421,8.6491 -4.32453,-0.54057 -2.70282,0.54057 -6.75708,4.05426 -4.05427,3.51369 -12.97364,18.64961 -20.00102,23.24441 -7.02739,4.59484 -10.00051,20.81189 -11.62222,26.21757 -1.62171,5.40567 -0.27027,23.24444 -3.51369,27.83927 -3.2434,4.59481 -5.94625,20.81186 -5.40568,32.16378 0.54057,11.35195 3.78396,16.75763 10.00051,14.05477 6.21654,-2.70282 32.16381,-18.91987 38.11005,-20.27129 5.94625,-1.35143 15.94676,4.86511 21.35243,5.67595 5.40568,0.81087 30.5421,0.54057 33.78552,1.89201 3.2434,1.35141 15.40619,18.37931 18.37931,20.27129 2.97312,1.89198 13.24393,11.62222 18.37931,11.08165 5.1354,-0.54057 8.10852,-0.27027 12.16279,-8.10853 4.05426,-7.83822 -2.43255,-25.40669 2.43255,-28.37981 4.86513,-2.97313 5.1354,-5.40568 14.86564,-7.02739 9.73021,-1.62171 25.1364,-1.08114 35.13691,0.27027 10.00053,1.35144 39.19119,2.97313 39.19119,2.97313 l -1.08114,-121.8981 c -6.75709,0.54057 -3.51369,2.97313 -13.2439,2.70283 -9.73024,-0.27027 -7.56796,1.08114 -13.51421,0 -5.94624,-1.08112 -7.29768,-2.16226 -11.62222,-0.54057 -4.32453,1.62171 -9.73023,-4.59481 -13.24393,0 -3.51369,4.59483 -1.89198,-1.35141 -9.18964,2.70285 -7.29768,4.05426 0.81085,5.67597 -14.05477,5.40567 -14.86561,-0.27027 -34.86666,-1.35141 -34.86666,-1.35141 z"
         id="path1203"
         sodipodi:nodetypes="csssssssssssssssssssssccssssssc" /></mask><mask
       maskUnits="userSpaceOnUse"
       id="mask279"><path
         style="fill:#ffffff;fill-opacity:0.988235;stroke-width:0.264583"
         d="m 310.37837,-55.42471 c 7.26255,-2.293438 29.81468,-16.818534 32.8726,-16.436293 3.05792,0.382239 29.81468,-9.173747 35.54825,-7.26255 5.7336,1.911199 14.90734,2.293437 19.49421,1.528958 4.58687,-0.764479 18.34751,-5.73359 19.11197,-1.146715 0.76448,4.58687 3.44016,12.231659 0,14.907334 -3.44014,2.675673 -6.11582,7.262548 -4.58687,11.084941 1.52897,3.822393 6.8803,3.057914 -2.67568,9.555986 -9.55598,6.498069 -15.28956,11.084941 -16.05404,16.436292 -0.76449,5.351352 0.38224,10.320464 -7.6448,9.555985 -8.02703,-0.764479 -14.52509,0 -14.14285,1.911197 0.38224,1.911197 -15.67183,17.9652507 -15.67183,17.9652507 z"
         id="path574" /></mask><mask
       maskUnits="userSpaceOnUse"
       id="mask1156"><path
         style="fill:#ffffff;fill-opacity:0.997573;stroke-width:0.264583"
         d="m 547.3668,38.51062 c 7.26255,10.320462 22.55213,9.651542 27.52124,13.091697 4.96912,3.440155 15.28956,6.498069 4.20463,11.84942 -11.08496,5.351352 -33.63706,0 -41.28185,16.054052 -7.6448,16.054054 -18.34751,37.077221 -9.17374,41.664091 9.17374,4.58688 36.31274,17.58301 47.77991,13.76062 11.46717,-3.82239 6.81871,-31.11334 15.71818,-34.6566 10.84183,-4.316584 16.148,-13.81329 18.89485,-25.964626 1.17094,-5.179861 3.96856,-6.184082 5.11318,-8.386855 1.9871,-3.824192 2.18493,-6.569527 2.89348,-7.392014 2.13545,-2.478799 6.97587,-5.351351 5.06468,-11.467179 -1.91119,-6.115833 -6.21141,-11.753863 -11.70609,-11.658304 -5.68153,0.09881 -5.94551,2.16729 -16.3721,1.390423 -6.21112,-0.462783 -12.07201,1.140748 -21.11396,0.644906 -9.891,-0.542404 -13.14254,-2.50095 -27.54241,1.070369 z"
         id="path1156"
         sodipodi:nodetypes="csssssssssssssc" /></mask></defs><g
     inkscape:label="Layer 1"
     inkscape:groupmode="layer"
     id="layer1"><path
       id="text911-8-4"
       style="font-size:57.2263px;font-family:MingLiU-ExtB;-inkscape-font-specification:MingLiU-ExtB;fill:#ff466c;fill-opacity:0.988235;stroke-width:0;stroke-opacity:0.52381"
       d="m 230.83358,18.441825 c -1.44773,-0.462874 -2.64609,0.189279 -3.59514,1.956506 -0.89524,1.667042 -0.40927,2.980676 1.45769,3.941175 0.26202,0.134805 0.50838,0.220756 0.73934,0.257745 0.29812,-0.01027 0.51257,0.0183 0.64359,0.08571 0.45856,0.235909 0.4988,0.706655 0.12009,1.411944 -0.54354,1.012174 -1.68221,1.84078 -3.41274,2.487019 l 0.54039,1.297931 c 0.26092,-0.07781 0.52286,-0.16051 0.78795,-0.254102 2.28475,-0.829431 3.86624,-2.061629 4.74427,-3.696612 1.03299,-1.923513 1.23361,-3.620937 0.60206,-5.091502 -0.4107,-0.947774 -1.07447,-1.657233 -1.99157,-2.129053 -0.21699,-0.111638 -0.42906,-0.200636 -0.63588,-0.26676 z" /><g
       id="g1167"
       transform="matrix(0.62330807,0,0,0.60512028,-2.8700973,4.4321676)"><path
         id="path934-8"
         style="font-weight:900;font-size:16.9333px;font-family:'Segoe UI';-inkscape-font-specification:'Segoe UI Heavy';fill:#c9fd73;fill-opacity:0.988235;stroke-width:0;stroke-opacity:0.52381"
         d="m 104.37576,10.921899 c -2.14875,0 -4.11714,0.55926 -5.905458,1.678071 -1.774442,1.103272 -3.119322,2.634033 -4.03427,4.591952 -0.901087,1.957917 -1.351387,4.218843 -1.351387,6.782785 0,3.729368 1.032839,6.65859 3.098406,8.787435 2.065564,2.128847 4.955889,3.193458 8.671129,3.193458 3.0637,0 5.66984,-0.482072 7.81858,-1.445491 v -6.292921 c -1.84375,0.885725 -3.7985,1.328599 -5.86407,1.328599 -1.48333,0 -2.67573,-0.287893 -3.57681,-0.862836 -0.90109,-0.590486 -1.42789,-1.398439 -1.58039,-2.424015 h 13.16285 v -3.729117 c 0,-2.330856 -0.40876,-4.366368 -1.22667,-6.106736 -0.80405,-1.740374 -1.98936,-3.092274 -3.55586,-4.055693 -1.5665,-0.963422 -3.45185,-1.445491 -5.65605,-1.445491 z m -0.0413,6.013944 c 1.76059,0 2.64043,1.375179 2.64043,4.125588 h -5.3647 c 0.0832,-1.243124 0.37446,-2.237903 0.87351,-2.983776 0.49907,-0.761413 1.11605,-1.141812 1.85076,-1.141812 z" /><path
         id="path932-6"
         style="font-weight:900;font-size:16.9333px;font-family:'Segoe UI';-inkscape-font-specification:'Segoe UI Heavy';fill:#c9fd73;fill-opacity:0.988235;stroke-width:0;stroke-opacity:0.52381"
         d="m 78.230287,10.921899 c -2.439863,0 -4.59571,0.497386 -6.467198,1.491887 -1.871485,0.994499 -3.313094,2.424192 -4.325083,4.288874 -1.011989,1.864684 -1.518026,4.063137 -1.518026,6.595998 0,3.946915 1.074373,7.047036 3.223117,9.300196 2.162608,2.23762 5.177526,3.356746 9.045263,3.356746 3.895464,0 6.924583,-1.150362 9.08719,-3.45014 2.176471,-2.299776 3.265045,-5.461772 3.265045,-9.48638 0,-2.284237 -0.499471,-4.350985 -1.497598,-6.200129 -0.984263,-1.849146 -2.405105,-3.294157 -4.262729,-4.33527 -1.843762,-1.041118 -4.026941,-1.561782 -6.549981,-1.561782 z m 0,7.272648 c 2.218059,0 3.326864,1.623875 3.326864,4.871531 0,3.744907 -1.095139,5.616873 -3.285473,5.616873 -2.245782,0 -3.36879,-1.794775 -3.36879,-5.384293 0,-3.403046 1.109342,-5.104111 3.327399,-5.104111 z" /><path
         style="font-weight:900;font-size:16.9333px;font-family:'Segoe UI';-inkscape-font-specification:'Segoe UI Heavy';fill:#c9fd73;fill-opacity:0.988235;stroke-width:0;stroke-opacity:0.52381"
         d="m 131.55394,35.372695 -4.7411,-12.260305 h -0.0832 v 12.260305 h -8.85838 V 0.0369028 h 8.85838 V 22.716141 h 0.0832 l 4.30441,-11.211421 h 9.98126 l -5.76001,10.931716 6.09274,12.936257 z"
         id="path936-1" /><path
         style="font-weight:900;font-size:16.9333px;font-family:'Segoe UI';-inkscape-font-specification:'Segoe UI Heavy';fill:#c9fd73;fill-opacity:0.988235;stroke-width:0;stroke-opacity:0.52381"
         d="m 55.384352,28.496667 h 8.775202 v 6.876026 H 43.760328 v -4.591787 l 9.565386,-12.40016 h -8.67123 V 11.50472 h 19.317921 v 5.640671 z"
         id="path931-2" /></g><g
       id="g1164"
       transform="matrix(0.62330807,0,0,0.60512028,-2.8700973,4.4321676)"><path
         style="font-weight:900;font-size:16.9333px;font-family:'Segoe UI';-inkscape-font-specification:'Segoe UI Heavy';fill:#ffa3b6;fill-opacity:0.988235;stroke-width:0;stroke-opacity:0.52381"
         d="M 33.799853,35.372693 29.058748,23.112388 h -0.08318 V 35.372693 H 20.117192 V 0.0369028 H 28.97557 V 22.716141 h 0.08318 L 33.363173,11.50472 h 9.981271 l -5.760025,10.931716 6.092737,12.936257 z"
         id="path930-1" /><g
         id="g273"><path
           style="font-weight:900;font-size:16.9333px;font-family:'Segoe UI';-inkscape-font-specification:'Segoe UI Heavy';fill:#ffa3b6;fill-opacity:0.988235;stroke-width:0;stroke-opacity:0.52381"
           d="M 6.9959762,35.372693 V 11.50472 h 8.8583798 v 23.867973 z"
           id="path929-1" /><path
           style="font-weight:900;font-size:16.9333px;font-family:'Segoe UI';-inkscape-font-specification:'Segoe UI Heavy';fill:#ff466c;fill-opacity:0.988235;stroke-width:0;stroke-opacity:0.52381"
           d="m 16.374213,5.0715538 q 0,2.097772 -1.372424,3.403051 -1.351632,1.30528 -3.576622,1.30528 -2.1626079,0 -3.5558284,-1.351896 -1.372425,-1.351898 -1.372425,-3.356435 0,-2.0511547 1.3308376,-3.3098155 1.3516309,-1.2819723 3.5974158,-1.2819723 2.22499,0 3.576622,1.2819723 1.372424,1.2586608 1.372424,3.3098155 z"
           id="path912-7" /></g></g><g
       id="g2"
       transform="matrix(1.5182111,0,0,1.5182111,79.879662,-27.575327)"><path
         id="path926-8"
         style="font-weight:900;font-size:16.9333px;font-family:'Segoe UI';-inkscape-font-specification:'Segoe UI Heavy';fill:#ffa3b6;fill-opacity:0.988235;stroke-width:0;stroke-opacity:0.52381"
         d="m 84.925149,25.336793 c -0.459651,0 -1.012154,0.06666 -1.657726,0.199802 -0.645578,0.133149 -1.182733,0.303889 -1.611397,0.512295 v 2.405629 c 0.986445,-0.56733 1.923779,-0.851161 2.812094,-0.851161 0.392508,0 0.704828,0.09248 0.937237,0.277726 0.232395,0.18525 0.348655,0.422645 0.348655,0.712098 l -1.967528,0.286517 c -1.916067,0.277875 -2.874118,1.291107 -2.874118,3.039405 0,0.833625 0.211797,1.49937 0.635286,1.99723 0.423504,0.49786 1.009756,0.746863 1.758624,0.746863 1.084569,0 1.88994,-0.52383 2.41672,-1.57165 h 0.03102 v 1.354664 h 3.013507 v -4.906362 c 0,-1.510947 -0.304649,-2.587829 -0.914065,-3.230416 -0.604257,-0.648375 -1.58034,-0.97264 -2.928305,-0.97264 z m 0.828863,5.036634 v 0.338865 c 0,0.451548 -0.108214,0.821853 -0.325129,1.111305 -0.211748,0.289453 -0.490674,0.434372 -0.836701,0.434372 -0.253063,0 -0.449498,-0.07826 -0.588943,-0.234569 -0.134285,-0.156305 -0.201421,-0.356269 -0.201421,-0.599409 0,-0.480493 0.278926,-0.772532 0.8367,-0.876735 z" /><path
         style="font-weight:900;font-size:16.9333px;font-family:'Segoe UI';-inkscape-font-specification:'Segoe UI Heavy';fill:#ffa3b6;fill-opacity:0.988235;stroke-width:0;stroke-opacity:0.52381"
         d="m 95.472609,34.324514 q -0.224662,0.121571 -0.735962,0.225773 -0.511306,0.112887 -1.231753,0.112887 -1.378954,0 -2.16139,-0.850993 -0.774697,-0.850994 -0.774697,-2.422726 v -3.273718 h -1.247255 v -2.561664 h 1.247255 v -1.745406 l 3.253705,-1.007297 v 2.752703 h 1.650097 v 2.561664 h -1.650097 v 2.665866 q 0,1.172288 0.828926,1.172288 0.387348,0 0.821171,-0.191041 z"
         id="path928-5" /><path
         style="font-weight:900;font-size:16.9333px;font-family:'Segoe UI';-inkscape-font-specification:'Segoe UI Heavy';fill:#ffa3b6;fill-opacity:0.988235;stroke-width:0;stroke-opacity:0.52381"
         d="M 77.046567,34.446087 75.280273,29.87851 h -0.03095 v 4.567577 H 71.949105 V 21.281739 h 3.300194 v 8.449148 h 0.03095 l 1.603615,-4.176814 h 3.718523 l -2.145902,4.072611 2.269847,4.819401 z"
         id="path925-1" /></g><g
       id="g1"
       transform="matrix(1.5182111,0,0,1.5182111,79.879662,-27.575327)"><path
         style="font-weight:900;font-size:16.9333px;font-family:'Segoe UI';-inkscape-font-specification:'Segoe UI Heavy';fill:#76f500;fill-opacity:1;stroke-width:0;stroke-opacity:0.52381"
         d="m 67.161498,34.446087 v -4.854135 q 0,-0.824942 -0.224661,-1.18097 -0.216913,-0.364712 -0.712716,-0.364712 -0.426081,0 -0.666236,0.373394 -0.240155,0.373395 -0.240155,0.955196 v 5.071227 h -3.300187 v -8.892012 h 3.300187 v 1.389377 h 0.03099 q 0.395093,-0.764158 1.061328,-1.18097 0.666236,-0.425497 1.44868,-0.425497 2.60296,0 2.60296,3.681848 v 5.427254 z"
         id="path924-6" /><g
         id="g1166"
         transform="matrix(0.6954189,0,0,0.6954189,2.0214437,0.0112399)"><path
           style="font-weight:900;font-size:16.9333px;font-family:'Segoe UI';-inkscape-font-specification:'Segoe UI Heavy';fill:#76f500;fill-opacity:1;stroke-width:0;stroke-opacity:0.52381"
           d="m 84.050907,49.641562 q 0,1.685728 -0.590416,3.071769 -0.590418,1.39853 -1.73783,2.097795 -1.147413,0.711752 -2.729285,0.711752 -0.868914,0 -1.893788,-0.374606 v -3.895904 q 0.623836,0.387093 1.136272,0.387093 0.590417,0 0.824356,-0.449528 0.245078,-0.437039 0.245078,-1.336094 V 36.73014 h 4.745613 z"
           id="path923-9" /><path
           style="font-weight:900;font-size:16.9333px;font-family:'Segoe UI';-inkscape-font-specification:'Segoe UI Heavy';fill:#ff466d;fill-opacity:0.985507;stroke-width:0;stroke-opacity:0.52381"
           d="m 84.329405,33.283764 q 0,1.123817 -0.735236,1.823082 -0.724096,0.699264 -1.916068,0.699264 -1.158553,0 -1.90493,-0.724237 -0.735235,-0.72424 -0.735235,-1.798109 0,-1.098846 0.712956,-1.773136 0.724096,-0.686779 1.927209,-0.686779 1.191972,0 1.916068,0.686779 0.735236,0.67429 0.735236,1.773136 z"
           id="path922-0" /><path
           style="font-weight:900;font-size:16.9333px;font-family:'Segoe UI';-inkscape-font-specification:'Segoe UI Heavy';fill:#76f500;fill-opacity:1;stroke-width:0;stroke-opacity:0.52381"
           d="M 72.275995,49.516694 V 36.73014 h 4.745613 v 12.786554 z"
           id="path921-5" /><path
           style="font-weight:900;font-size:16.9333px;font-family:'Segoe UI';-inkscape-font-specification:'Segoe UI Heavy';fill:#ff466d;fill-opacity:0.985507;stroke-width:0;stroke-opacity:0.52381"
           d="m 77.300105,33.283764 q 0,1.123817 -0.735235,1.823082 -0.724096,0.699264 -1.916068,0.699264 -1.158555,0 -1.90493,-0.724237 -0.735236,-0.72424 -0.735236,-1.798109 0,-1.098846 0.712957,-1.773136 0.724095,-0.686779 1.927209,-0.686779 1.191972,0 1.916068,0.686779 0.735235,0.67429 0.735235,1.773136 z"
           id="path920-3" /></g><path
         style="font-weight:900;font-size:16.9333px;font-family:'Segoe UI';-inkscape-font-specification:'Segoe UI Heavy';fill:#76f500;fill-opacity:1;stroke-width:0;stroke-opacity:0.52381"
         d="m 47.453332,34.446085 v -5.123328 q 0,-0.642587 -0.209167,-0.955196 -0.20142,-0.321294 -0.666235,-0.321294 -0.457069,0 -0.712717,0.390762 -0.255648,0.382079 -0.255648,1.068084 v 4.940972 h -3.300188 v -5.036492 q 0,-1.363326 -0.828921,-1.363326 -0.503551,0 -0.759198,0.399447 -0.255649,0.39076 -0.255649,1.128868 v 4.871503 h -3.300188 v -8.892012 h 3.300188 v 1.406744 h 0.03099 q 0.185926,-0.373396 0.588766,-0.755474 0.410587,-0.390763 0.921883,-0.62522 0.511297,-0.243141 1.107811,-0.243141 0.844413,0 1.417687,0.373395 0.581019,0.373396 0.968363,1.180972 0.418335,-0.746792 1.115558,-1.146238 0.697222,-0.408129 1.549384,-0.408129 1.247254,0 1.913489,0.911779 0.666234,0.911778 0.666234,2.631132 v 5.566192 z"
         id="path919-1" /></g><g
       id="g3"
       transform="matrix(1.6436222,0,0,1.6013098,75.368386,-33.405241)"><path
         id="path916-2"
         style="font-weight:900;font-size:16.9333px;font-family:'Segoe UI';-inkscape-font-specification:'Segoe UI Heavy';fill:#ff466d;fill-opacity:0.985507;stroke-width:0;stroke-opacity:0.52381"
         d="m 25.521696,26.392001 c -0.800515,0 -1.533736,0.265146 -2.19997,0.795023 -0.66107,0.522516 -1.162145,1.247473 -1.503009,2.174757 -0.3357,0.927283 -0.50338,1.998306 -0.50338,3.212605 0,1.766254 0.384825,3.153318 1.15435,4.161554 0.769528,1.008236 1.846144,1.512322 3.230259,1.512322 1.141378,0 2.112458,-0.227996 2.912973,-0.684278 v -2.980956 c -0.686894,0.419485 -1.415115,0.629415 -2.184641,0.629415 -0.552613,0 -0.996902,-0.136138 -1.332602,-0.408435 -0.335699,-0.279656 -0.531772,-0.662365 -0.588583,-1.148085 h 4.903675 V 31.8896 c 0,-1.103908 -0.152323,-2.067804 -0.457034,-2.892056 -0.299549,-0.824252 -0.741158,-1.464474 -1.32476,-1.920756 -0.5836,-0.456284 -1.286105,-0.684787 -2.107278,-0.684787 z m -0.01533,2.848368 c 0.655906,0 0.983943,0.651164 0.983943,1.953776 H 24.49141 c 0.031,-0.588751 0.139559,-1.059503 0.325486,-1.412754 0.185926,-0.360611 0.415749,-0.541022 0.689473,-0.541022 z" /><path
         style="font-weight:900;font-size:16.9333px;font-family:'Segoe UI';-inkscape-font-specification:'Segoe UI Heavy';fill:#ff466d;fill-opacity:0.985507;stroke-width:0;stroke-opacity:0.52381"
         d="m 35.767087,37.817709 q -0.224661,0.154547 -0.735958,0.287016 -0.511296,0.143508 -1.23176,0.143508 -1.378951,0 -2.161391,-1.081831 -0.774692,-1.081833 -0.774692,-3.079908 v -4.161738 h -1.247254 v -3.256535 h 1.247254 v -2.21886 l 3.253708,-1.280535 v 3.499395 h 1.650093 v 3.256535 h -1.650093 v 3.389001 q 0,1.490279 0.82892,1.490279 0.387346,0 0.821173,-0.242861 z"
         id="path918-3" /><path
         style="font-weight:900;font-size:16.9333px;font-family:'Segoe UI';-inkscape-font-specification:'Segoe UI Heavy';fill:#ff466d;fill-opacity:0.985507;stroke-width:0;stroke-opacity:0.52381"
         d="M 16.775524,37.972256 V 26.668221 h 3.300189 v 11.304035 z"
         id="path915-4" /><path
         style="font-weight:900;font-size:16.9333px;font-family:'Segoe UI';-inkscape-font-specification:'Segoe UI Heavy';fill:#ff466d;fill-opacity:0.985507;stroke-width:0;stroke-opacity:0.52381"
         d="m 20.269385,23.62143 q 0,0.993519 -0.511297,1.611707 -0.50355,0.61819 -1.33247,0.61819 -0.80568,0 -1.324723,-0.640266 -0.511297,-0.64027 -0.511297,-1.589631 0,-0.971441 0.495803,-1.567551 0.503549,-0.607152 1.340217,-0.607152 0.82892,0 1.33247,0.607152 0.511297,0.59611 0.511297,1.567551 z"
         id="path914-9" /><path
         style="font-weight:900;font-size:16.9333px;font-family:'Segoe UI';-inkscape-font-specification:'Segoe UI Heavy';fill:#ff466d;fill-opacity:0.985507;stroke-width:0;stroke-opacity:0.52381"
         d="M 11.987927,37.972256 V 31.8014 q 0,-1.048714 -0.22466,-1.501316 -0.216914,-0.463643 -0.712717,-0.463643 -0.426081,0 -0.666235,0.474682 -0.240155,0.47468 -0.240155,1.214299 v 6.446834 H 6.8439712 V 26.668221 H 10.14416 v 1.766255 h 0.03099 q 0.395093,-0.97144 1.061327,-1.501317 0.666235,-0.540917 1.448675,-0.540917 2.602964,0 2.602964,4.680579 v 6.899435 z"
         id="path913-3" /></g></g></svg>
