<?xml version="1.0" encoding="UTF-8" standalone="no"?>
<!-- Created with Inkscape (http://www.inkscape.org/) -->

<svg
   width="100"
   height="100"
   viewBox="0 0 26.458332 26.458332"
   version="1.1"
   id="svg2787"
   inkscape:version="1.3.2 (091e20e, 2023-11-25, custom)"
   sodipodi:docname="koffie.svg"
   xmlns:inkscape="http://www.inkscape.org/namespaces/inkscape"
   xmlns:sodipodi="http://sodipodi.sourceforge.net/DTD/sodipodi-0.dtd"
   xmlns:xlink="http://www.w3.org/1999/xlink"
   xmlns="http://www.w3.org/2000/svg"
   xmlns:svg="http://www.w3.org/2000/svg">
  <sodipodi:namedview
     id="namedview2789"
     pagecolor="#ffffff"
     bordercolor="#000000"
     borderopacity="0.25"
     inkscape:showpageshadow="2"
     inkscape:pageopacity="0.0"
     inkscape:pagecheckerboard="0"
     inkscape:deskcolor="#d1d1d1"
     inkscape:document-units="mm"
     showgrid="false"
     inkscape:zoom="3.7415823"
     inkscape:cx="33.675593"
     inkscape:cy="41.025424"
     inkscape:window-width="1350"
     inkscape:window-height="689"
     inkscape:window-x="0"
     inkscape:window-y="0"
     inkscape:window-maximized="0"
     inkscape:current-layer="layer1" />
  <defs
     id="defs2784">
    <linearGradient
       inkscape:collect="always"
       xlink:href="#linearGradient29522"
       id="linearGradient31309"
       gradientUnits="userSpaceOnUse"
       gradientTransform="matrix(0.79324094,-0.60890789,0.79324094,0.60890789,4.892518,-8.867114)"
       x1="14.228266"
       y1="-29.189594"
       x2="3.6590269"
       y2="-18.620356" />
    <linearGradient
       inkscape:collect="always"
       id="linearGradient29522">
      <stop
         style="stop-color:#d4a125;stop-opacity:1;"
         offset="0"
         id="stop29518" />
      <stop
         style="stop-color:#edd495;stop-opacity:1;"
         offset="1"
         id="stop29520" />
    </linearGradient>
    <linearGradient
       inkscape:collect="always"
       xlink:href="#linearGradient29522"
       id="linearGradient31385"
       gradientUnits="userSpaceOnUse"
       gradientTransform="matrix(-0.79324094,-0.60890789,-0.79324094,0.60890789,5.1079993,-8.8671145)"
       x1="14.228266"
       y1="-29.189594"
       x2="3.6590269"
       y2="-18.620356" />
    <linearGradient
       inkscape:collect="always"
       xlink:href="#linearGradient29522"
       id="linearGradient29605"
       gradientUnits="userSpaceOnUse"
       gradientTransform="matrix(0.80013746,-0.61907549,0.80013746,0.61907549,17.509457,-0.36880917)"
       x1="14.228266"
       y1="-29.189594"
       x2="3.6590269"
       y2="-18.620356" />
    <linearGradient
       inkscape:collect="always"
       xlink:href="#linearGradient63860"
       id="linearGradient65275-5"
       gradientUnits="userSpaceOnUse"
       gradientTransform="matrix(0.66421575,0,0,0.8072664,1.8780341,-1.3117295)"
       x1="-4.8864021"
       y1="22.24264"
       x2="31.318727"
       y2="23.342697" />
    <linearGradient
       inkscape:collect="always"
       id="linearGradient63860">
      <stop
         style="stop-color:#1b1b1b;stop-opacity:0"
         offset="0"
         id="stop63856" />
      <stop
         style="stop-color:#f7f7f7;stop-opacity:1;"
         offset="1"
         id="stop63858" />
    </linearGradient>
    <linearGradient
       inkscape:collect="always"
       xlink:href="#linearGradient21111"
       id="linearGradient63872-0"
       x1="2.2139602"
       y1="23.342697"
       x2="31.318727"
       y2="23.342697"
       gradientUnits="userSpaceOnUse"
       gradientTransform="matrix(0.72433826,0,0,0.7249822,0.87006532,0.40851689)" />
    <linearGradient
       inkscape:collect="always"
       id="linearGradient21111">
      <stop
         style="stop-color:#0bd971;stop-opacity:1;"
         offset="0"
         id="stop21107" />
      <stop
         style="stop-color:#80ffb3;stop-opacity:1;"
         offset="1"
         id="stop21109" />
    </linearGradient>
    <linearGradient
       inkscape:collect="always"
       xlink:href="#linearGradient63860"
       id="linearGradient63862-3"
       x1="-4.8864021"
       y1="22.24264"
       x2="31.318727"
       y2="23.342697"
       gradientUnits="userSpaceOnUse"
       gradientTransform="matrix(0.72433826,0,0,0.7249822,0.87006532,0.40851689)" />
    <linearGradient
       inkscape:collect="always"
       xlink:href="#linearGradient21727"
       id="linearGradient64363-4"
       x1="5.7019768"
       y1="22.950537"
       x2="27.830343"
       y2="22.950537"
       gradientUnits="userSpaceOnUse"
       gradientTransform="matrix(0.67726906,0,0,0.72166388,1.9121499,0.48572194)" />
    <linearGradient
       inkscape:collect="always"
       id="linearGradient21727">
      <stop
         style="stop-color:#c3e5dd;stop-opacity:1;"
         offset="0"
         id="stop21723" />
      <stop
         style="stop-color:#ffffff;stop-opacity:1;"
         offset="1"
         id="stop21725" />
    </linearGradient>
    <linearGradient
       inkscape:collect="always"
       xlink:href="#linearGradient21733"
       id="linearGradient64858-7"
       x1="8.5654268"
       y1="23.250519"
       x2="24.967411"
       y2="23.250519"
       gradientUnits="userSpaceOnUse"
       gradientTransform="matrix(0.66543016,0,0,0.74460118,2.002262,0.14022099)" />
    <linearGradient
       inkscape:collect="always"
       id="linearGradient21733">
      <stop
         style="stop-color:#ffffff;stop-opacity:1;"
         offset="0"
         id="stop21729" />
      <stop
         style="stop-color:#effff9;stop-opacity:1;"
         offset="1"
         id="stop21731" />
    </linearGradient>
    <radialGradient
       inkscape:collect="always"
       xlink:href="#linearGradient21741"
       id="radialGradient66381-3"
       cx="16.401358"
       cy="22.166248"
       fx="16.401358"
       fy="22.166248"
       r="4.7021031"
       gradientTransform="matrix(0.01616065,0.56911405,-0.97000964,0.03036334,34.309648,6.8457384)"
       gradientUnits="userSpaceOnUse" />
    <linearGradient
       inkscape:collect="always"
       id="linearGradient21741">
      <stop
         style="stop-color:#484d4e;stop-opacity:1;"
         offset="0"
         id="stop21735" />
      <stop
         style="stop-color:#585e60;stop-opacity:0.99607843;"
         offset="0.66961509"
         id="stop21737" />
      <stop
         style="stop-color:#e6f6fb;stop-opacity:0.99433428;"
         offset="1"
         id="stop21739" />
    </linearGradient>
    <linearGradient
       inkscape:collect="always"
       xlink:href="#linearGradient21068"
       id="linearGradient83573-8"
       x1="22.326729"
       y1="17.516705"
       x2="28.830881"
       y2="17.516705"
       gradientUnits="userSpaceOnUse"
       gradientTransform="matrix(0.77246685,0,0,0.8110304,0.06312567,-1.1191734)" />
    <linearGradient
       inkscape:collect="always"
       id="linearGradient21068">
      <stop
         style="stop-color:#19723e;stop-opacity:1;"
         offset="0"
         id="stop21062" />
      <stop
         style="stop-color:#2dcf67;stop-opacity:0.82352942;"
         offset="0.51485145"
         id="stop21064" />
      <stop
         style="stop-color:#cf2d2d;stop-opacity:0;"
         offset="1"
         id="stop21066" />
    </linearGradient>
    <linearGradient
       inkscape:collect="always"
       xlink:href="#linearGradient21076"
       id="linearGradient84484-3"
       x1="24.562634"
       y1="12.670937"
       x2="26.244383"
       y2="12.670937"
       gradientUnits="userSpaceOnUse"
       gradientTransform="matrix(0.77246685,0,0,0.8110304,0.06312567,-1.1191734)" />
    <linearGradient
       inkscape:collect="always"
       id="linearGradient21076">
      <stop
         style="stop-color:#1e884f;stop-opacity:1;"
         offset="0.0375817"
         id="stop21070" />
      <stop
         style="stop-color:#17b682;stop-opacity:0.74901962;"
         offset="0.45544556"
         id="stop21072" />
      <stop
         style="stop-color:#69dec4;stop-opacity:0.69971675;"
         offset="1"
         id="stop21074" />
    </linearGradient>
    <radialGradient
       inkscape:collect="always"
       xlink:href="#linearGradient21055"
       id="radialGradient66391-0"
       cx="16.013201"
       cy="18.754278"
       fx="16.013201"
       fy="18.754278"
       r="8.2759552"
       gradientTransform="matrix(0.30702993,1.8843838,-1.1499173,0.20653448,26.396314,-23.754147)"
       gradientUnits="userSpaceOnUse" />
    <linearGradient
       inkscape:collect="always"
       id="linearGradient21055">
      <stop
         style="stop-color:#aaffc4;stop-opacity:1;"
         offset="0"
         id="stop21049" />
      <stop
         style="stop-color:#00fdac;stop-opacity:1;"
         offset="0.35863915"
         id="stop21051" />
      <stop
         style="stop-color:#00d981;stop-opacity:1;"
         offset="0.62254906"
         id="stop21057" />
      <stop
         style="stop-color:#00a715;stop-opacity:1;"
         offset="0.9808796"
         id="stop21053" />
    </linearGradient>
    <linearGradient
       inkscape:collect="always"
       xlink:href="#linearGradient61459"
       id="linearGradient61461-4"
       x1="54.535458"
       y1="-88.887215"
       x2="70.769737"
       y2="-88.887215"
       gradientUnits="userSpaceOnUse"
       gradientTransform="matrix(0.70012748,0,0,0.73507953,-31.023703,71.703462)" />
    <linearGradient
       inkscape:collect="always"
       id="linearGradient61459">
      <stop
         style="stop-color:#ed7a59;stop-opacity:0.84985834;"
         offset="0"
         id="stop61455" />
      <stop
         style="stop-color:#ffeb84;stop-opacity:1;"
         offset="1"
         id="stop61457" />
    </linearGradient>
  </defs>
  <g
     inkscape:label="Layer 1"
     inkscape:groupmode="layer"
     id="layer1">
    <g
       id="g117847"
       transform="matrix(0.67134216,0,0,0.67134216,-82.51628,-11.043571)"
       style="stroke-width:1.48955">
      <path
         id="rect29651"
         style="fill:#b89644;fill-opacity:1;fill-rule:evenodd;stroke-width:0.377152"
         d="m -35.605293,27.319225 c -0.492538,-1e-6 -0.984675,0.144973 -1.362085,0.434689 l -11.14712,8.556916 h 0.0022 V 52.7082 h 25.014637 V 36.31083 h 0.0022 L -34.24267,27.753914 c -0.377408,-0.289716 -0.870084,-0.43469 -1.362623,-0.434689 z" />
      <rect
         style="mix-blend-mode:multiply;fill:#ddd3d3;fill-opacity:1;fill-rule:evenodd;stroke-width:0.385875"
         id="rect31549-1"
         width="22.808271"
         height="19.408148"
         x="-46.973419"
         y="31.062712" />
      <rect
         style="fill:#ffffff;fill-rule:evenodd;stroke-width:0.394111"
         id="rect31549"
         width="22.101128"
         height="20.893148"
         x="-46.655563"
         y="31.252985" />
      <text
         xml:space="preserve"
         style="font-style:normal;font-weight:normal;font-size:15.5252px;line-height:1.25;font-family:sans-serif;fill:#000000;fill-opacity:1;stroke:none;stroke-width:0.361336"
         x="-31.271276"
         y="52.282772"
         id="text33454"
         transform="matrix(0.99810239,0.29980889,-0.22385307,0.93466048,0,0)"><tspan
           sodipodi:role="line"
           id="tspan33452"
           style="font-style:normal;font-variant:normal;font-weight:bold;font-stretch:normal;font-size:15.5252px;font-family:Amiri;-inkscape-font-specification:'Amiri Bold';fill:#ff2e2e;fill-opacity:1;stroke-width:0.361336"
           x="-31.271276"
           y="52.282772">@</tspan></text>
      <path
         id="path31562"
         style="mix-blend-mode:normal;fill:#c5a761;fill-opacity:1;stroke:#000000;stroke-width:0;stroke-linecap:butt;stroke-linejoin:miter;stroke-dasharray:none;stroke-opacity:1"
         d="m -24.548379,36.496118 -11.088147,7.974712 -11.019009,-7.924561 v 2.948302 l 9.953777,8.797419 h 1.995262 l -0.0031,-0.05016 h 0.207925 l 9.953265,-8.797952 z" />
      <g
         id="g31560"
         transform="matrix(1,0,0,0.99165096,-40.605258,66.988617)"
         style="stroke-width:1.48955">
        <g
           id="g31553"
           style="stroke-width:1.48955">
          <path
             id="rect29033-76-4"
             style="fill:url(#linearGradient31309);fill-opacity:1;fill-rule:evenodd;stroke-width:0.439399"
             d="m -7.50924,-30.936074 v 16.535425 c 0.452893,10e-7 0.905606,-0.13307 1.252636,-0.399458 l 10.250021,-7.868254 -10.250021,-7.868254 c -0.34703,-0.266388 -0.799743,-0.399459 -1.252636,-0.399459 z" />
          <path
             id="rect29033-76-4-0"
             style="fill:url(#linearGradient31385);fill-opacity:1;fill-rule:evenodd;stroke-width:0.439399"
             d="m 17.509757,-30.936074 v 16.535425 c -0.452893,10e-7 -0.905606,-0.13307 -1.252636,-0.399458 L 6.0071003,-22.668361 16.257121,-30.536615 c 0.34703,-0.266388 0.799743,-0.399459 1.252636,-0.399459 z" />
        </g>
        <path
           id="rect29033-76-0"
           style="fill:#b89644;fill-opacity:1;fill-rule:evenodd;stroke-width:0.47522"
           d="m 5.0002539,-23.668412 c -0.4725829,-1e-6 -0.9449721,0.149165 -1.3070895,0.447776 l -10.6955936,8.819987 H 17.002935 L 6.3073434,-23.220636 C 5.945226,-23.519247 5.4728368,-23.668413 5.0002539,-23.668412 Z" />
        <path
           id="rect29033-76"
           style="fill:url(#linearGradient29605);fill-opacity:1;fill-rule:evenodd;stroke-width:0.444974"
           d="m 5.0002391,-22.806416 c -0.4568329,-1e-6 -0.9134785,0.135291 -1.2635274,0.406128 l -10.3391353,7.999639 H 16.6029 L 6.2637665,-22.400288 c -0.3500489,-0.270837 -0.8066946,-0.406129 -1.2635274,-0.406128 z" />
      </g>
    </g>
    <g
       id="g62734"
       transform="matrix(0.7536567,0,0,0.77803576,93.46873,9.7776886)"
       style="stroke-width:1.30591">
      <g
         id="g57676"
         transform="translate(-34.649999,-10.182857)"
         style="stroke-width:1.30591">
        <g
           id="g90331"
           style="stroke-width:1.30591">
          <path
             id="path4915"
             style="fill:#a6dcdc;fill-opacity:1;fill-rule:evenodd;stroke-width:0.370064"
             d="m 24.994174,11.315617 c 0,5.272737 -2.500406,8.237514 -12.412617,7.956881 C 2.6693456,18.991865 0.26248458,16.588354 0.26248458,11.315617 c 0,-5.2727385 2.16159332,-8.6116935 12.45938842,-8.6116935 10.297795,0 12.272301,3.338955 12.272301,8.6116935 z"
             sodipodi:nodetypes="szszs" />
          <path
             style="fill:#a6dcdc;fill-opacity:1;stroke:#000000;stroke-width:0;stroke-linecap:round;stroke-linejoin:miter;stroke-dasharray:none;stroke-opacity:1"
             d="M 3.7332865,14.868144 0.33947713,20.984424 6.8038726,18.545671 Z"
             id="path56756"
             sodipodi:nodetypes="cccc" />
        </g>
      </g>
      <g
         id="g56946"
         transform="translate(-34.616544,-10.182857)"
         style="mix-blend-mode:multiply;stroke-width:1.30591">
        <g
           id="g90327"
           style="stroke-width:1.30591">
          <path
             id="path4915-7"
             style="mix-blend-mode:multiply;fill:#a9eaad;fill-opacity:1;fill-rule:evenodd;stroke-width:0.370062"
             d="m 9.3086373,21.539929 c 0,5.101353 2.3447267,7.953082 11.2700997,8.112338 8.925373,0.159256 11.137808,-3.010985 11.137808,-8.112338 0,-5.101353 -2.631392,-7.831871 -11.468537,-7.649316 -8.837145,0.182555 -10.9393707,2.547963 -10.9393707,7.649316 z"
             sodipodi:nodetypes="szszs" />
          <path
             style="fill:#a9eaad;fill-opacity:1;stroke:#000000;stroke-width:0;stroke-linecap:round;stroke-linejoin:miter;stroke-dasharray:none;stroke-opacity:1"
             d="m 28.122772,26.078274 3.032305,5.544014 -6.333961,-2.335585 z"
             id="path56756-6"
             sodipodi:nodetypes="cccc" />
        </g>
      </g>
    </g>
    <g
       id="g2653"
       transform="matrix(1.0029351,0,0,1.0029351,0.17639585,-0.88585079)">
      <path
         id="path59980-7-4-4-38-6-6"
         style="fill:#509e8f;fill-opacity:1;fill-rule:evenodd;stroke:url(#linearGradient65275-5);stroke-width:0"
         d="m 22.680429,17.532046 c 0,3.788267 -5.162681,5.760541 -9.48654,5.853518 -4.3238591,0.09298 -9.7454364,-2.128013 -9.8453066,-5.853518 -0.091411,-3.409751 4.3275808,-6.177403 9.6659216,-6.177403 5.338343,0 9.665925,2.765717 9.665925,6.177403 z"
         sodipodi:nodetypes="szsss" />
      <ellipse
         style="fill:url(#linearGradient63872-0);fill-opacity:1;fill-rule:evenodd;stroke:url(#linearGradient63862-3);stroke-width:0;stroke-dasharray:none;stroke-opacity:1"
         id="path59980-7-4-4-38-8"
         cx="13.014572"
         cy="17.331558"
         rx="10.540849"
         ry="5.5477424" />
      <path
         style="fill:url(#linearGradient64363-4);fill-opacity:1;fill-rule:evenodd;stroke:#000000;stroke-width:0;stroke-dasharray:none;stroke-opacity:1"
         d="m 13.267525,13.161244 a 7.4935342,3.8870172 0 0 0 -7.4936025,3.887051 7.4935342,3.8870172 0 0 0 7.4936025,3.887051 7.4935342,3.8870172 0 0 0 7.493256,-3.887051 7.4935342,3.8870172 0 0 0 -7.493256,-3.887051 z"
         id="path59980-7-4-4-3-2-6" />
      <path
         style="fill:url(#linearGradient64858-7);fill-opacity:1;fill-rule:evenodd;stroke:none;stroke-width:0;stroke-dasharray:none;stroke-opacity:1"
         d="m 13.159142,14.549035 a 5.4571469,2.9037144 0 0 1 5.457188,2.903728 5.4571469,2.9037144 0 0 1 -5.457188,2.903372 5.4571469,2.9037144 0 0 1 -5.4571867,-2.903372 5.4571469,2.9037144 0 0 1 5.4571867,-2.903728 z"
         id="path64850-0" />
      <ellipse
         style="fill:url(#radialGradient66381-3);fill-opacity:1;fill-rule:evenodd;stroke-width:0.299669"
         id="path66164-3"
         cx="12.909357"
         cy="16.996399"
         rx="3.6322191"
         ry="2.1374621" />
      <path
         id="path88587-9-5"
         style="mix-blend-mode:darken;fill:#272626;fill-opacity:0.428904;fill-rule:evenodd;stroke-width:0.299668"
         inkscape:transform-center-x="-10.68953"
         inkscape:transform-center-y="-5.6490508"
         d="m 13.967875,11.784824 a 3.9440304,9.829758 65.368221 0 0 -3.68526,5.646271 3.9440304,9.829758 65.368221 0 0 10.613486,-0.548198 3.9440304,9.829758 65.368221 0 0 2.163175,-1.134116 10.510097,5.3435581 0 0 0 -9.091401,-3.963957 z" />
      <path
         style="fill:#39ffba;fill-opacity:1;stroke:#000000;stroke-width:0;stroke-linecap:butt;stroke-linejoin:miter;stroke-dasharray:none;stroke-opacity:1"
         d="m 18.893095,8.8528054 c 0.309738,-0.3251696 1.817292,-1.8212365 3.091274,-0.6429285 1.065234,0.9852379 1.124101,2.9998191 -0.281026,4.4599071 -1.405123,1.460091 -2.733607,1.778655 -3.24456,2.36269 -0.510956,0.584037 -0.817529,0.530942 -0.970815,0.345112 -0.01579,-1.144064 0.413901,-1.60285 0.843076,-1.858295 0.919718,-0.398205 2.503678,-1.16807 3.116823,-2.123765 0.613145,-0.955695 0.89417,-1.8331289 0.178831,-2.4437136 -0.715336,-0.6105813 -2.324843,0.6650597 -2.605868,1.3287356 -0.305916,0.72246 -0.683306,-0.8444889 -0.178834,-1.3740977 z"
         id="path66789-2"
         sodipodi:nodetypes="ssssccsssss" />
      <path
         style="fill:url(#linearGradient83573-8);fill-opacity:1;stroke:#000000;stroke-width:0;stroke-linecap:butt;stroke-linejoin:miter;stroke-dasharray:none;stroke-opacity:1"
         d="m 18.56075,13.372434 c 1.30174,-0.611643 2.590667,-1.195251 3.146671,-2.449023 0.325169,-0.796606 0.575622,-0.871126 0.268517,0.153084 -0.307103,1.024208 -0.668404,1.403544 -1.228418,1.877715 -0.560012,0.47417 -0.686467,0.77764 -0.07225,0.379336 0.614208,-0.398302 1.391003,-1.270777 1.517458,-1.650113 0.126455,-0.379338 0.19535,0.147134 -0.59951,1.057539 -0.984006,1.127049 -2.791837,2.036753 -3.275427,2.451324 -0.274288,0.23514 -0.640052,0.637012 -0.933427,0.703295 -0.16336,0.03691 -0.0028,-0.01727 0.0031,-0.191191 0.526902,-1.714973 0.0049,-1.606776 1.173302,-2.331966 z"
         id="path68033-3"
         sodipodi:nodetypes="ccssssssscc" />
      <path
         style="fill:url(#linearGradient84484-3);fill-opacity:1;stroke:#000000;stroke-width:0;stroke-linecap:butt;stroke-linejoin:miter;stroke-dasharray:none;stroke-opacity:1"
         d="m 19.97821,7.9978367 c 0.175067,0.218197 0.430609,0.5643199 0.32672,1.0539488 0,0 -0.820141,0.4543911 -1.196862,1.1431465 -0.165881,0.30328 -0.125452,-1.0791077 0.04677,-1.5883318 0.331665,-0.325762 0.582375,-0.4742118 0.823372,-0.6087635 z"
         id="path68035-7"
         sodipodi:nodetypes="ccscc" />
      <path
         id="path60967-91"
         style="fill:url(#radialGradient66391-0);fill-opacity:1;fill-rule:evenodd;stroke:#576e14;stroke-width:0;stroke-dasharray:none;stroke-opacity:1"
         d="m 12.841401,3.990243 c -3.4251803,0 -6.2197243,1.468355 -6.349606,3.3063268 -0.026377,0.6090375 0.0042,1.2452757 0.099499,1.9038728 0.1971264,1.3620454 0.3301095,2.6552714 0.6968289,3.8468704 0.9924247,3.224748 2.5485077,5.578667 5.6234701,5.578667 3.074963,0 4.631046,-2.35392 5.62347,-5.578667 0.366719,-1.191599 0.587175,-2.473977 0.696464,-3.8468704 0.05818,-0.7311338 0.04662,-1.4398012 -0.02675,-2.1169765 C 18.878884,5.3463776 16.133158,3.990243 12.841427,3.990243 Z"
         sodipodi:nodetypes="scsszsscs" />
      <path
         id="path60967-9-0"
         style="mix-blend-mode:normal;fill:#00bc70;fill-opacity:1;fill-rule:evenodd;stroke:#576e14;stroke-width:0;stroke-dasharray:none;stroke-opacity:1"
         d="m 13.751884,18.524318 c 2.540992,-0.384915 3.9051,-2.593138 4.805369,-5.518441 0.366719,-1.191598 0.587285,-2.474135 0.696574,-3.8470249 0.05818,-0.7311327 0.04663,-1.4397594 -0.02675,-2.1169335 -0.03162,-0.1685842 -0.08617,-0.3336154 -0.161669,-0.4941321 -0.0079,0.099806 -0.01687,0.1991114 -0.02756,0.2975691 -0.198634,1.0587782 -1.324117,1.9713831 -2.925215,2.5037724 a 3.1409051,6.717286 0 0 1 0.02075,0.1089683 3.1409051,6.717286 0 0 1 0.02793,0.1567473 3.1409051,6.717286 0 0 1 0.02595,0.1580046 3.1409051,6.717286 0 0 1 0.02395,0.1596819 3.1409051,6.717286 0 0 1 0.02195,0.1605199 3.1409051,6.717286 0 0 1 0.02036,0.161776 3.1409051,6.717286 0 0 1 0.01836,0.162617 3.1409051,6.717286 0 0 1 0.01638,0.163871 3.1409051,6.717286 0 0 1 0.01477,0.164712 3.1409051,6.717286 0 0 1 0.01238,0.16513 3.1409051,6.717286 0 0 1 0.01076,0.165968 3.1409051,6.717286 0 0 1 0.0088,0.166388 3.1409051,6.717286 0 0 1 0.0068,0.166805 3.1409051,6.717286 0 0 1 0.0052,0.167225 3.1409051,6.717286 0 0 1 0.0027,0.167226 3.1409051,6.717286 0 0 1 7.72e-4,0.167645 3.1409051,6.717286 0 0 1 -0.0088,0.501678 3.1409051,6.717286 0 0 1 -0.02635,0.499161 3.1409051,6.717286 0 0 1 -0.04351,0.493713 3.1409051,6.717286 0 0 1 -0.06068,0.485331 3.1409051,6.717286 0 0 1 -0.07784,0.474014 3.1409051,6.717286 0 0 1 -0.09381,0.460605 3.1409051,6.717286 0 0 1 -0.109773,0.443839 3.1409051,6.717286 0 0 1 -0.124944,0.425398 3.1409051,6.717286 0 0 1 -0.139314,0.404442 3.1409051,6.717286 0 0 1 -0.153287,0.380554 3.1409051,6.717286 0 0 1 -0.166061,0.355407 3.1409051,6.717286 0 0 1 -0.178035,0.327326 3.1409051,6.717286 0 0 1 -0.189213,0.298408 3.1409051,6.717286 0 0 1 -0.198793,0.267394 3.1409051,6.717286 0 0 1 -0.207575,0.234701 3.1409051,6.717286 0 0 1 -0.21516,0.200755 3.1409051,6.717286 0 0 1 -0.221946,0.165968 3.1409051,6.717286 0 0 1 -0.226736,0.129925 3.1409051,6.717286 0 0 1 -0.15688,0.06329 z" />
      <ellipse
         style="fill:none;fill-rule:evenodd;stroke:#000000;stroke-width:0;stroke-dasharray:none;stroke-opacity:1"
         id="path59980-7-4-6"
         cx="12.841284"
         cy="7.4034319"
         rx="5.6089396"
         ry="2.6604803" />
      <path
         id="path59980-7-4-5-9"
         style="fill:url(#linearGradient61461-4);fill-opacity:1;fill-rule:evenodd;stroke:#000000;stroke-width:0;stroke-dasharray:none;stroke-opacity:1"
         d="M 12.74472,4.6220536 C 9.6468989,4.6220375 7.0836359,5.9340464 7.0837274,7.4034314 7.0844768,7.5636026 7.2168103,8.0707507 7.5405028,8.3484946 8.7338056,6.9618931 10.172238,6.4007989 12.800298,6.4000853 c 2.5834,7.883e-4 4.777786,0.6888638 5.444482,1.8843025 -0.163474,0.248893 0.459824,-0.4671987 0.363835,-0.8809564 9.2e-5,-1.469317 -2.284198,-2.7813778 -5.863895,-2.7813778 z"
         sodipodi:nodetypes="ccccccc" />
      <path
         style="mix-blend-mode:multiply;fill:#8e6b36;fill-opacity:0.440559;stroke:#000000;stroke-width:0;stroke-linecap:butt;stroke-linejoin:miter;stroke-dasharray:none;stroke-opacity:1"
         d="m 7.5186877,8.3789108 c 0,0 -1.2616442,-1.2101083 0.5531481,-2.5112205 C 8.6768041,5.4339587 9.352838,5.1797091 9.9208304,5.0282645 10.578612,4.852879 11.404089,4.7129943 11.404089,4.7129943 c 0,0 -0.229398,1.2704995 -0.364895,1.8123915 -2.6263885,0.4124722 -3.5205063,1.853525 -3.5205063,1.853525 z"
         id="path88626-1"
         sodipodi:nodetypes="cssccc" />
      <ellipse
         style="fill:none;fill-rule:evenodd;stroke:#ffffff;stroke-width:0.919678;stroke-dasharray:none;stroke-opacity:1"
         id="path59980-7-4-2-7"
         cx="12.844708"
         cy="7.3763776"
         rx="6.2115631"
         ry="3.1917989" />
      <path
         id="path59980-7-4-8-5"
         style="fill:#602c0f;fill-opacity:1;fill-rule:evenodd;stroke:#000000;stroke-width:0;stroke-dasharray:none;stroke-opacity:1"
         d="M 12.891141,6.3912136 C 10.257236,6.3913835 8.1008934,7.2199284 7.6021296,8.3185824 7.9853782,9.3458808 10.292707,10.066483 12.842571,10.067065 15.47943,10.066794 17.74429,9.2787568 18.239673,8.1891921 17.653667,7.1355944 15.439617,6.3913133 12.891141,6.3912136 Z"
         sodipodi:nodetypes="ccccc" />
      <path
         id="path59980-7-4-8-9-4"
         style="fill:#371600;fill-opacity:0.927739;fill-rule:evenodd;stroke:#000000;stroke-width:0;stroke-dasharray:none;stroke-opacity:1"
         d="m 12.85992,6.3972753 c -2.9915769,0 -4.5915624,0.7756306 -5.2889806,1.9272578 0.1518953,0.4071557 0.6067033,0.7659695 1.258387,1.0510391 C 8.7984198,9.2730371 8.7828725,9.1696753 8.7827808,9.0661934 8.7830812,7.7952267 11.065461,6.7649653 13.880871,6.7649268 c 1.272149,7.7e-5 2.498274,0.2148558 3.437583,0.6021581 -1.009303,-0.5944915 -2.6495,-0.9697405 -4.458531,-0.9698096 z"
         sodipodi:nodetypes="scccccss" />
      <path
         id="path84513-6"
         style="fill:#914926;fill-opacity:1;fill-rule:evenodd;stroke-width:0.299669"
         d="m 15.372937,8.0752109 c 0,0.550083 -1.371123,1.1187906 -3.062487,1.1187906 -1.691365,0 -3.0624867,-0.5008995 -3.0624867,-1.1187906 0,-0.4370668 1.5714007,-1.1187906 3.0624867,-1.1187906 1.691364,0 3.062487,0.6365169 3.062487,1.1187906 z"
         sodipodi:nodetypes="sssss" />
    </g>
  </g>
</svg>
