<?xml version="1.0" encoding="UTF-8" standalone="no"?>
<!-- Created with Inkscape (http://www.inkscape.org/) -->

<svg
   width="45"
   height="45"
   viewBox="0 0 11.906249 11.906249"
   version="1.1"
   id="svg2787"
   inkscape:version="1.3.2 (091e20e, 2023-11-25, custom)"
   sodipodi:docname="oog.svg"
   xml:space="preserve"
   xmlns:inkscape="http://www.inkscape.org/namespaces/inkscape"
   xmlns:sodipodi="http://sodipodi.sourceforge.net/DTD/sodipodi-0.dtd"
   xmlns="http://www.w3.org/2000/svg"
   xmlns:svg="http://www.w3.org/2000/svg"><sodipodi:namedview
     id="namedview2789"
     pagecolor="#ffffff"
     bordercolor="#000000"
     borderopacity="0.25"
     inkscape:showpageshadow="2"
     inkscape:pageopacity="0.0"
     inkscape:pagecheckerboard="0"
     inkscape:deskcolor="#d1d1d1"
     inkscape:document-units="mm"
     showgrid="false"
     inkscape:zoom="8.0000001"
     inkscape:cx="62.624999"
     inkscape:cy="45.9375"
     inkscape:window-width="1920"
     inkscape:window-height="991"
     inkscape:window-x="-9"
     inkscape:window-y="-9"
     inkscape:window-maximized="1"
     inkscape:current-layer="layer1"
     showguides="false" /><defs
     id="defs2784"><mask
       maskUnits="userSpaceOnUse"
       id="mask54252"><circle
         style="fill:#ffffff;fill-opacity:1;fill-rule:evenodd;stroke-width:0.225914"
         id="circle54254"
         cx="16.529335"
         cy="23.564339"
         r="11.100581" /></mask></defs><g
     inkscape:label="Layer 1"
     inkscape:groupmode="layer"
     id="layer1"><circle
       style="fill:#231f0c;fill-opacity:1;stroke-width:0"
       id="path1"
       cx="5.953125"
       cy="5.953125"
       r="5.953125" /><circle
       style="fill:#485608;fill-opacity:1;stroke-width:0"
       id="path1-4"
       cx="5.5759883"
       cy="6.4387217"
       r="5.4239583" /><path
       id="path1-4-4"
       style="fill:#6e9200;stroke-width:0"
       d="M 10.74673,8.7927887 C 10.098002,10.588013 7.2995921,12.497976 3.8893463,11.468937 0.73545462,10.517253 -0.10554521,7.8202125 0.49187663,5.6596924 1.0892985,3.4991723 4.6338883,1.0056248 6.9523855,2.4279187 9.2520365,3.8386514 12.11517,5.0059075 10.74673,8.7927887 Z"
       sodipodi:nodetypes="sssss" /><path
       style="fill:#a1d401;fill-opacity:1;stroke-width:0"
       d="M 1.9579165,5.9531252 C 2.5664581,7.6729165 3.9960936,8.3920866 4.868333,8.2285416 6.561666,7.9110415 6.4320522,5.7981438 8.0962495,6.0060417 9.5788204,6.1912501 10.290758,7.2234571 9.2339578,9.3397916 8.0056442,11.799597 4.0057846,11.328607 2.2224997,9.710208 0.37719614,8.0355246 0.9525,5.2387501 1.9579165,5.9531252 Z"
       id="path3"
       sodipodi:nodetypes="cssssc" /><path
       style="fill:#c2fe08;fill-opacity:1;stroke-width:0"
       d="M 5.6091663,8.9693747 C 6.912346,8.9007864 7.5406246,7.1966666 8.3343744,7.1966666 c 0.7937501,0 1.1820107,1.9020987 0.105833,2.6987497 -2.0372913,1.5081247 -4.1539579,0.7672917 -5.4239577,2e-7 C 1.5711518,9.0223366 4.3059867,9.0379631 5.6091663,8.9693747 Z"
       id="path4"
       sodipodi:nodetypes="sssss" /><path
       style="fill:#1a1a1a;fill-opacity:1;stroke-width:0"
       d="m 5.178713,1.15121 c 0,0 6.259582,1.5198412 1.388856,8.909299 C 2.5660219,9.3935846 0.82615325,3.2572875 5.178713,1.15121 Z"
       id="path5"
       sodipodi:nodetypes="ccc" /><circle
       style="fill:#ffffff;fill-opacity:1;stroke-width:0"
       id="path6"
       cx="-9.7742424"
       cy="-0.49968708"
       r="1.2170833" /><g
       id="g6"
       transform="matrix(0.57962873,0,0,0.84293067,0.92244261,-0.01762699)"><rect
         style="fill:#ffffff;fill-opacity:1;stroke-width:0"
         id="rect6"
         width="8.1851292"
         height="1.0588089"
         x="1.8605604"
         y="3.4611406" /><rect
         style="fill:#ffffff;fill-opacity:1;stroke-width:0"
         id="rect6-7"
         width="8.1851292"
         height="1.0588089"
         x="1.8605604"
         y="5.8336773" /><rect
         style="fill:#ffffff;fill-opacity:1;stroke-width:0"
         id="rect6-9"
         width="8.1851292"
         height="1.0588089"
         x="1.8605604"
         y="8.206214" /></g></g></svg>
