<?xml version="1.0" encoding="UTF-8" standalone="no"?>
<!-- Created with Inkscape (http://www.inkscape.org/) -->

<svg
   width="14.471mm"
   height="13.229mm"
   viewBox="0 0 14.470999 13.228998"
   version="1.1"
   id="svg1"
   inkscape:version="1.3.2 (091e20e, 2023-11-25, custom)"
   sodipodi:docname="open.svg"
   xmlns:inkscape="http://www.inkscape.org/namespaces/inkscape"
   xmlns:sodipodi="http://sodipodi.sourceforge.net/DTD/sodipodi-0.dtd"
   xmlns="http://www.w3.org/2000/svg"
   xmlns:svg="http://www.w3.org/2000/svg">
  <sodipodi:namedview
     id="namedview1"
     pagecolor="#ffffff"
     bordercolor="#000000"
     borderopacity="0.25"
     inkscape:showpageshadow="2"
     inkscape:pageopacity="0.0"
     inkscape:pagecheckerboard="0"
     inkscape:deskcolor="#d1d1d1"
     inkscape:document-units="mm"
     inkscape:zoom="7.8312671"
     inkscape:cx="40.031836"
     inkscape:cy="11.428546"
     inkscape:window-width="1920"
     inkscape:window-height="991"
     inkscape:window-x="-9"
     inkscape:window-y="-9"
     inkscape:window-maximized="1"
     inkscape:current-layer="layer1" />
  <defs
     id="defs1" />
  <g
     inkscape:label="Layer 1"
     inkscape:groupmode="layer"
     id="layer1">
    <circle
       style="fill:#b7e500;fill-opacity:1;stroke:#373737;stroke-width:0.5;stroke-dasharray:none;stroke-opacity:1"
       id="path6"
       cx="6.6143608"
       cy="6.6145"
       r="6.6145835" />
    <path
       style="fill:#b7e500;fill-opacity:1;stroke-width:0"
       d="m -6.3984142,11.802426 c 2.7877633,0.714946 7.33079992,7.225577 1.1271366,13.067482 -5.9832074,-2.566095 -7.3550544,-9.673354 -1.1271366,-13.067482 z"
       id="path5-5"
       sodipodi:nodetypes="ccc" />
    <path
       id="path1"
       style="opacity:1;fill:#c2fe08;fill-opacity:1;stroke-width:0"
       d="m -7.0844762,9.5016812 c 0,3.2967048 -2.3691785,6.0068298 -5.5359468,6.4915468 -3.035549,-0.484717 -5.535947,-3.194842 -5.535947,-6.4915468 0,-3.2967053 2.544137,-6.0068311 5.535947,-6.4915461 2.9262003,0.484715 5.5359468,3.1948409 5.5359468,6.4915461 z"
       sodipodi:nodetypes="scscs" />
    <g
       id="g2"
       transform="translate(-13.902997,-8.6491268)">
      <rect
         style="fill:#044f67;fill-opacity:0.995215;stroke-width:0.182122;stroke-dasharray:none"
         id="rect1-0-4"
         width="7.1584258"
         height="0.85375726"
         x="-2.7697194"
         y="8.1792002"
         transform="rotate(-45)" />
      <rect
         style="fill:#044f67;fill-opacity:0.995215;stroke-width:0.181835"
         id="rect1-0-4-7"
         width="7.1584253"
         height="0.85375726"
         x="-12.185291"
         y="-1.236372"
         transform="matrix(-0.70710678,-0.70710678,-0.70710678,0.70710678,0,0)" />
    </g>
    <circle
       style="fill:#231f0c;fill-opacity:1;stroke-width:0"
       id="path1-0"
       cx="25.449047"
       cy="5.845089"
       r="5.953125" />
    <circle
       style="fill:#6e9200;fill-opacity:1;stroke-width:0"
       id="path1-4"
       cx="25.071911"
       cy="6.3306856"
       r="5.4239583" />
    <path
       id="path1-4-4"
       style="fill:#6e9200;stroke-width:0"
       d="m 30.242652,8.6847533 c -0.648728,1.7952237 -3.447138,3.7051867 -6.857384,2.6761477 -3.153892,-0.951684 -3.994891,-3.6487247 -3.39747,-5.8092447 0.597422,-2.16052 4.142012,-4.65406719 6.460509,-3.231773 2.299651,1.410732 5.162785,2.577988 3.794345,6.36487 z"
       sodipodi:nodetypes="sssss" />
    <path
       style="fill:#a1d401;fill-opacity:1;stroke-width:0"
       d="m 21.453838,5.8450893 c 0.608542,1.719791 2.038177,2.438962 2.910417,2.275417 1.693333,-0.317501 1.563719,-2.430398 3.227916,-2.2225 1.482571,0.185208 2.194509,1.217415 1.137709,3.33375 -1.228314,2.4598047 -5.228174,1.9888147 -7.011459,0.370416 -1.845303,-1.674683 -1.269999,-4.471458 -0.264583,-3.757083 z"
       id="path3"
       sodipodi:nodetypes="cssssc" />
    <path
       style="fill:#c2fe08;fill-opacity:1;stroke-width:0"
       d="m 25.105088,8.8613393 c 1.30318,-0.06859 1.931458,-1.772708 2.725208,-1.772708 0.79375,0 1.182011,1.902098 0.105833,2.698749 -2.037291,1.5081247 -4.153958,0.7672917 -5.423958,0 -1.445097,-0.873079 1.289737,-0.857453 2.592917,-0.926041 z"
       id="path4"
       sodipodi:nodetypes="sssss" />
    <path
       style="fill:#1a1a1a;fill-opacity:1;stroke-width:0"
       d="m 24.674635,1.0431743 c 0,0 6.259582,1.519841 1.388856,8.909299 -4.001547,-0.666924 -5.741416,-6.803221 -1.388856,-8.909299 z"
       id="path5"
       sodipodi:nodetypes="ccc" />
    <g
       id="g6"
       transform="matrix(0.57962873,0,0,0.84293067,20.418364,-0.12566269)">
      <rect
         style="fill:#ffffff;fill-opacity:1;stroke-width:0"
         id="rect6"
         width="8.1851292"
         height="1.0588089"
         x="1.8605604"
         y="3.4611406" />
      <rect
         style="fill:#ffffff;fill-opacity:1;stroke-width:0"
         id="rect6-7"
         width="8.1851292"
         height="1.0588089"
         x="1.8605604"
         y="5.8336773" />
      <rect
         style="fill:#ffffff;fill-opacity:1;stroke-width:0"
         id="rect6-9"
         width="8.1851292"
         height="1.0588089"
         x="1.8605604"
         y="8.206214" />
    </g>
    <circle
       style="fill:#ffffff;fill-opacity:1;stroke:none;stroke-width:0;stroke-dasharray:none"
       id="path2"
       cx="4.0610714"
       cy="3.2012546"
       r="1.7200773" />
    <ellipse
       style="fill:#a1d401;fill-opacity:1;stroke:none;stroke-width:0;stroke-dasharray:none"
       id="path6-3"
       cx="-16.415562"
       cy="1.8843712"
       rx="6.1845641"
       ry="6.6145835" />
    <g
       id="g1"
       transform="matrix(0.79311421,0,0,0.84217826,-8.5640954,0.32421009)"
       style="fill:#000000;fill-opacity:1">
      <rect
         style="fill:#000000;fill-opacity:1;stroke-width:0.229486"
         id="rect1"
         width="7.835907"
         height="1.242278"
         x="1.3790945"
         y="2.6398809" />
      <rect
         style="fill:#000000;fill-opacity:1;stroke-width:0.229486"
         id="rect1-0"
         width="7.835907"
         height="1.242278"
         x="1.3790945"
         y="5.7288613" />
      <rect
         style="fill:#000000;fill-opacity:1;stroke-width:0.229486"
         id="rect1-0-7"
         width="7.835907"
         height="1.242278"
         x="1.3790945"
         y="8.8178415" />
    </g>
    <g
       id="g3">
      <path
         id="path10"
         style="fill:#000000;fill-opacity:1;stroke-width:0.0621073"
         d="m 9.2070076,8.8616831 c 0.011446,-2.976e-4 0.024548,-0.00824 0.050566,-0.024118 0.028704,-0.017529 0.136952,-0.052204 0.2405593,-0.077014 0.1036081,-0.02481 0.199937,-0.053009 0.2140436,-0.062686 C 9.7497336,8.67211 9.7286949,8.3292443 9.6801131,8.1751207 9.6060938,7.9403105 9.4633235,7.7626924 9.2836661,7.6819011 l -0.091773,-0.041254 -0.1589257,0.024736 c -0.1069559,0.01664 -0.2131378,0.022415 -0.3247011,0.017669 l -0.1657754,-0.00702 -0.033084,0.051708 c -0.037725,0.058923 -0.095064,0.082788 -0.1654216,0.068919 -0.079766,-0.015723 -0.094495,-0.033084 -0.082161,-0.096793 0.00618,-0.031904 0.00412,-0.057978 -0.00468,-0.057978 -0.0087,-6.5e-6 -0.077538,0.00976 -0.1529238,0.021675 -0.2991795,0.0473 -0.4788154,0.055114 -1.3363006,0.0581 -0.8205861,0.0029 -0.8837444,0.00122 -0.9852609,-0.025606 C 5.6174325,7.6523982 5.3287387,7.65354 5.1855856,7.6984906 L 5.0766241,7.7326786 4.9579499,7.6882052 C 4.8121211,7.6335775 4.6286555,7.6051547 4.2231369,7.5743565 3.8983834,7.5496866 3.7594146,7.5334115 3.6675143,7.5093218 c -0.075779,-0.019869 -0.072222,-0.020234 -0.14406,0.014787 -0.040131,0.01956 -0.1190223,0.036593 -0.20737,0.044763 L 3.1734721,7.5820402 3.0589309,7.6804037 C 2.9459956,7.7773484 2.8449582,7.887535 2.8449582,7.9137585 c -1.12e-5,0.00739 0.013065,0.0343 0.029031,0.059794 0.015938,0.025522 0.033383,0.099215 0.038727,0.1638119 0.00927,0.1118225 0.012036,0.1178384 0.056883,0.1255791 0.087028,0.015012 0.1646102,0.050444 0.1646102,0.075152 -1.9e-6,0.020009 -0.010791,0.022443 -0.058755,0.013252 -0.1139769,-0.021853 -0.1486871,-0.017557 -0.1550071,0.019242 -0.00777,0.045259 0.070556,0.1535003 0.145052,0.2003985 0.093634,0.058961 0.2397769,0.1154303 0.4845084,0.1872699 0.3223426,0.09462 0.3117241,0.094186 0.4025219,0.016762 0.042096,-0.035891 0.084688,-0.076977 0.094628,-0.091305 0.017042,-0.024558 0.024792,-0.02424 0.1355865,0.00571 0.159242,0.043088 0.4310533,0.042199 0.6688911,-0.00215 0.3516321,-0.065634 0.6108146,-0.065531 0.7911318,3.716e-4 0.075835,0.027712 0.080196,0.027721 0.2357582,-3.313e-4 0.3454497,-0.062293 0.70067,-0.064773 0.8385513,-0.0059 0.047496,0.020299 0.1287827,0.025503 0.4565441,0.029274 0.4199743,0.00487 0.5627147,-0.00571 0.7378153,-0.054422 l 0.1069859,-0.02977 0.1018684,0.031502 c 0.066532,0.020561 0.1961449,0.03883 0.3735693,0.052653 0.4808911,0.037454 0.5745406,0.055451 0.6723875,0.1292925 0.019495,0.014722 0.029293,0.022068 0.040748,0.021759 z M 8.9245712,8.5750595 c -0.030501,-7.056e-4 -0.030201,-0.030285 -0.015358,-0.1084402 0.010473,-0.055199 0.025643,-0.1087406 0.033683,-0.1190092 0.017511,-0.022358 0.081609,-0.023678 0.1254874,-0.00253 0.072119,0.034712 0.016649,0.1808049 -0.0816,0.2149366 -0.028133,0.00978 -0.048357,0.015395 -0.062208,0.015068 z" />
      <path
         id="path10-7"
         style="fill:#000000;fill-opacity:1;stroke-width:0.0594595"
         d="m 3.4831279,2.3956681 c -0.011006,2.839e-4 -0.023584,0.00785 -0.048601,0.023001 -0.02759,0.016718 -0.1316165,0.049786 -0.2311882,0.073448 -0.099572,0.023662 -0.1921497,0.050555 -0.2057051,0.059783 -0.036097,0.024563 -0.015882,0.3515552 0.030809,0.4985433 0.071146,0.2239392 0.2083461,0.3933341 0.381005,0.4703851 l 0.088198,0.039344 0.1527348,-0.023591 C 3.7531713,3.5207117 3.8552166,3.515205 3.9624336,3.51973 L 4.1217514,3.52642 4.1535524,3.477106 C 4.1898084,3.42091 4.2449134,3.39815 4.3125305,3.411378 c 0.076659,0.014995 0.090818,0.031551 0.07897,0.092312 -0.00599,0.030428 -0.00384,0.055294 0.0044,0.055294 0.00842,6.2e-6 0.074515,-0.00931 0.1469669,-0.020672 C 4.8303922,3.493202 5.0030305,3.48575 5.827113,3.482902 6.6157339,3.480142 6.6764317,3.481742 6.7739932,3.507322 6.9327841,3.54896 7.2102313,3.547871 7.3478076,3.505002 L 7.4525258,3.472397 7.5665766,3.514811 c 0.140149,0.052098 0.3164672,0.079205 0.7061889,0.1085779 0.3121022,0.023527 0.4456579,0.03905 0.5339775,0.062024 0.072821,0.018949 0.069405,0.019297 0.1384484,-0.014103 0.038568,-0.018655 0.1143869,-0.034899 0.1992923,-0.042691 l 0.137057,-0.012557 0.1100789,-0.093809 C 9.5001562,3.4297962 9.5972572,3.3247106 9.5972572,3.2997012 9.5972675,3.292654 9.5846976,3.2669892 9.5693678,3.2426758 9.5540379,3.2183362 9.5372856,3.148054 9.5321476,3.0864479 9.5232566,2.9798026 9.52058,2.9740652 9.4774824,2.9666827 9.3938423,2.9523665 9.319284,2.9185735 9.319284,2.8950098 9.3192858,2.875927 9.3296629,2.873606 9.375746,2.8823706 9.485283,2.9032128 9.5186399,2.8991146 9.5247147,2.8640198 9.5322018,2.8208557 9.4569098,2.7176261 9.3853135,2.6728991 9.2953281,2.6166683 9.1548759,2.5628128 8.9196783,2.4942992 8.6098934,2.4040601 8.6200964,2.4044737 8.5328362,2.4783133 c -0.040458,0.03423 -0.081385,0.073413 -0.09094,0.087078 -0.016378,0.02342 -0.023828,0.023117 -0.1303063,-0.00545 -0.153038,-0.041094 -0.4142598,-0.040246 -0.6428341,0.00205 -0.3379336,0.062595 -0.5870197,0.062497 -0.7603131,-3.544e-4 -0.072878,-0.026428 -0.07708,-0.026438 -0.2265753,3.16e-4 C 6.3498758,2.6213645 6.0084925,2.6237294 5.8759823,2.56758 5.8303297,2.5482203 5.752216,2.5432573 5.4372219,2.5396607 5.0336078,2.5350187 4.8964284,2.5451075 4.7281486,2.591563 L 4.6253302,2.619955 4.52743,2.5899121 C 4.4634902,2.5703025 4.3389256,2.55288 4.1684137,2.5396972 3.7062553,2.5039772 3.6162539,2.486813 3.5222188,2.4163903 3.5034824,2.4023501 3.4940674,2.3953431 3.4830613,2.3956389 Z m 0.2714332,0.2733538 c 0.029312,6.729e-4 0.029031,0.028883 0.014759,0.1034198 -0.010061,0.052643 -0.024642,0.1037063 -0.032372,0.1134994 -0.016837,0.021323 -0.078427,0.022582 -0.1205992,0.00241 -0.069312,-0.033105 -0.015994,-0.1724341 0.078418,-0.2049856 0.027047,-0.00932 0.046457,-0.014683 0.059784,-0.014371 z" />
      <path
         id="path8"
         style="fill:#000000;fill-opacity:1;stroke-width:0.0625298"
         d="M 3.4188419,5.065829 C 3.176583,5.070989 2.9924333,5.134495 2.8873698,5.2503766 c -0.056256,0.062074 -0.056743,0.064227 -0.045905,0.1951181 0.033916,0.4095244 0.2061261,0.6792542 0.5051446,0.7911525 0.1041613,0.038979 0.1059199,0.039112 0.2485134,0.017221 0.2421306,-0.037172 0.3953156,-0.033116 0.6037665,0.016039 0.1680168,0.039621 0.2071163,0.043194 0.4542006,0.041378 0.3219682,-0.00237 0.5317668,-0.024982 0.6327124,-0.068189 0.0454,-0.019432 0.1343858,-0.037093 0.2305968,-0.045776 0.1167809,-0.010535 0.1843883,-0.025874 0.2655353,-0.060147 0.1584736,-0.066929 0.2431152,-0.064263 0.351882,0.010972 0.049143,0.034001 0.1036139,0.058328 0.1298355,0.058055 0.024839,-2.577e-4 0.1050486,0.01269 0.1782377,0.028755 0.1767646,0.038801 0.4355007,0.04713 0.70505,0.022712 C 7.450615,6.2301572 7.9909583,6.1615922 8.0491789,6.143176 8.0886639,6.130686 8.1174419,6.136056 8.2110732,6.173333 8.331898,6.221442 8.3904526,6.226303 8.5854923,6.20457 8.6591373,6.19636 8.7312238,6.19798 8.7923774,6.2092 8.8769624,6.224718 8.8940549,6.223325 8.9650569,6.195001 9.0095209,6.177262 9.115773,6.15626 9.2089479,6.146787 L 9.3740212,6.1300016 9.5194991,6.0130162 C 9.5994986,5.9486731 9.6819315,5.8741101 9.7027016,5.8473246 L 9.7404459,5.7986108 9.6860615,5.6617184 C 9.6069885,5.4627687 9.6022716,5.433546 9.6401938,5.3770099 9.6633663,5.3424046 9.6692249,5.3131741 9.6605774,5.2747502 9.6310689,5.1436617 9.4683043,5.0755078 9.1611267,5.0655741 8.9477353,5.0586766 8.8212793,5.0724248 8.2689931,5.1625832 7.8179034,5.2362272 7.6888531,5.2390957 7.5007428,5.1795958 7.4000292,5.1477391 7.3841313,5.1465992 7.2915291,5.1646365 7.0521846,5.2112577 6.7528348,5.2392688 6.5583389,5.2332529 6.3501772,5.226814 5.9498987,5.1687863 5.8469484,5.1301292 5.7857414,5.1071466 5.7844218,5.1074255 5.6542634,5.1719783 5.4985497,5.2492067 5.4424227,5.2498001 5.2631939,5.1761617 5.1909435,5.1464801 5.1128625,5.1273983 5.0466196,5.1232383 4.914668,5.1149557 4.6471655,5.1461806 4.5094985,5.1859576 L 4.403019,5.2167202 4.1976144,5.1663096 c -0.2511769,-0.061685 -0.4313416,-0.08828 -0.6714919,-0.0991 -0.036921,-0.00167 -0.07269,-0.00213 -0.1073003,-0.00139 z m 5.1765734,0.7412245 0.1242529,0.00918 c 0.068339,0.00504 0.1294462,0.013536 0.1357943,0.018884 0.022068,0.018598 -0.018287,0.1972231 -0.05123,0.226724 -0.017941,0.016037 -0.043163,0.029288 -0.056106,0.029418 C 8.6957067,6.0918026 8.5943952,5.9346976 8.59504,5.8538409 Z" />
    </g>
  </g>
</svg>
