<?xml version="1.0" encoding="UTF-8" standalone="no"?>
<!-- Created with Inkscape (http://www.inkscape.org/) -->

<svg
   width="100"
   height="100"
   viewBox="0 0 26.458332 26.458332"
   version="1.1"
   id="svg2787"
   inkscape:version="1.3.2 (091e20e, 2023-11-25, custom)"
   sodipodi:docname="qm.svg"
   xmlns:inkscape="http://www.inkscape.org/namespaces/inkscape"
   xmlns:sodipodi="http://sodipodi.sourceforge.net/DTD/sodipodi-0.dtd"
   xmlns:xlink="http://www.w3.org/1999/xlink"
   xmlns="http://www.w3.org/2000/svg"
   xmlns:svg="http://www.w3.org/2000/svg">
  <sodipodi:namedview
     id="namedview2789"
     pagecolor="#ffffff"
     bordercolor="#000000"
     borderopacity="0.25"
     inkscape:showpageshadow="2"
     inkscape:pageopacity="0.0"
     inkscape:pagecheckerboard="0"
     inkscape:deskcolor="#d1d1d1"
     inkscape:document-units="mm"
     showgrid="false"
     inkscape:zoom="5.291397"
     inkscape:cx="94.115032"
     inkscape:cy="34.678933"
     inkscape:window-width="1920"
     inkscape:window-height="991"
     inkscape:window-x="-9"
     inkscape:window-y="-9"
     inkscape:window-maximized="1"
     inkscape:current-layer="layer1"
     showguides="true" />
  <defs
     id="defs2784">
    <radialGradient
       inkscape:collect="always"
       xlink:href="#linearGradient44"
       id="radialGradient45"
       cx="11.29548"
       cy="13.492684"
       fx="11.29548"
       fy="13.492684"
       r="9.210536"
       gradientTransform="matrix(0.15029873,1.4678296,1.2916019,-0.11584068,-8.2612455,-9.5249017)"
       gradientUnits="userSpaceOnUse" />
    <linearGradient
       id="linearGradient44"
       inkscape:collect="always">
      <stop
         style="stop-color:#d4a175;stop-opacity:1;"
         offset="0"
         id="stop44" />
      <stop
         style="stop-color:#965d2d;stop-opacity:1;"
         offset="1"
         id="stop45" />
    </linearGradient>
    <linearGradient
       inkscape:collect="always"
       xlink:href="#linearGradient36"
       id="linearGradient37"
       x1="8.9754581"
       y1="12.250625"
       x2="7.3753762"
       y2="10.225521"
       gradientUnits="userSpaceOnUse"
       gradientTransform="matrix(-1.052461,0.44043768,0.44547645,1.1017636,19.414225,-13.411613)" />
    <linearGradient
       id="linearGradient36"
       inkscape:collect="always">
      <stop
         style="stop-color:#77511a;stop-opacity:1;"
         offset="0"
         id="stop36" />
      <stop
         style="stop-color:#916f57;stop-opacity:0;"
         offset="1"
         id="stop37" />
    </linearGradient>
    <linearGradient
       inkscape:collect="always"
       xlink:href="#linearGradient38"
       id="linearGradient39"
       x1="16.570852"
       y1="10.621636"
       x2="17.679352"
       y2="7.7964911"
       gradientUnits="userSpaceOnUse"
       gradientTransform="matrix(-1.052461,0.44043768,0.44547645,1.1017636,19.414225,-13.411613)" />
    <linearGradient
       id="linearGradient38"
       inkscape:collect="always">
      <stop
         style="stop-color:#8a650a;stop-opacity:1;"
         offset="0.00424628"
         id="stop38" />
      <stop
         style="stop-color:#916f57;stop-opacity:0;"
         offset="1"
         id="stop39" />
    </linearGradient>
  </defs>
  <g
     inkscape:label="Layer 1"
     inkscape:groupmode="layer"
     id="layer1">
    <g
       id="g1"
       transform="translate(-71.704282,-2.9699998)">
      <path
         style="fill:url(#radialGradient45);fill-opacity:1;stroke-width:0.308074"
         d="M 24.329067,19.95554 C 21.181822,16.172236 16.841112,16.662571 18.595976,14.397733 20.293816,12.206497 19.537972,9.4464083 19.091255,7.711714 18.82651,6.683654 18.103704,6.6325129 18.157045,6.1302281 18.306654,4.7213889 17.724921,0.91012925 17.420531,0.15434799 17.161633,-0.48848023 15.160284,1.0322485 14.573637,1.6795112 13.941818,2.3766109 12.968195,4.1152901 12.968195,4.1152901 12.171089,4.0692581 11.871818,3.7872487 8.6235219,4.8320576 c 0,0 -1.7999936,-2.1947239 -3.4140777,-3.0785693 C 3.5446485,0.84187372 3.2985905,5.5371951 4.671677,8.4570157 4.7479905,8.6192266 3.7236093,9.4161599 3.7142808,10.650157 c -0.00949,1.261676 -0.1084002,2.577917 1.1734704,4.803044 0.5908971,1.025702 3.1357364,2.314111 0.4163789,3.391732 -1.603007,0.635238 -2.5524942,2.786437 -3.385229,5.561814 -0.5277408,1.758879 4.0251779,2.123563 10.1821409,2.080863 3.558256,-0.02468 7.785463,0.130948 11.533318,-0.476076 3.314825,-0.536888 2.277215,-3.847145 0.694707,-6.055994 z"
         id="path1"
         sodipodi:nodetypes="csssssccssssssssc" />
      <path
         style="fill:url(#linearGradient37);fill-opacity:1;stroke-width:0.381672"
         d="m 14.141391,4.0508323 c 2.311705,0.2513575 3.196117,2.2598808 3.562334,1.8113099 C 18.069939,5.4135712 17.463532,1.7935567 17.303676,1.0818951 17.143824,0.3702349 16.632672,0.51250786 16.131567,0.84030006 15.091002,1.5209757 13.071927,3.9345456 14.141391,4.0508323 Z"
         id="path5"
         sodipodi:nodetypes="sssss" />
      <path
         style="fill:url(#linearGradient39);stroke-width:0.39107"
         d="M 4.9904297,7.6013355 C 5.3232602,8.0362741 6.6073968,5.8987646 7.7734988,5.1637368 8.4278955,4.7512651 5.6702228,2.4539013 4.800026,2.0640379 4.2895821,1.8353488 3.5808247,5.7592761 4.9904297,7.6013355 Z"
         id="path6"
         sodipodi:nodetypes="ssss" />
      <g
         id="g573-06-4-8"
         transform="matrix(0.16442188,-0.06880785,0.06959506,0.17212426,-22.286206,-48.604552)">
        <g
           id="g258-2-0-8-5"
           transform="matrix(0.14105505,0,0,0.14105505,21.172092,269.61286)"
           mask="none">
          <path
             style="fill:#50e1ff;fill-opacity:1"
             d="m 364.98867,606.58913 c -20.00034,-0.93698 -40.17757,-8.45392 -54.05082,-23.25461 -8.58414,-8.53121 -14.27512,-20.88377 -11.8312,-33.12845 1.36114,-10.67955 7.88093,-19.80973 14.15315,-28.22358 7.47271,-9.35465 16.89995,-16.55114 28.20944,-20.90813 11.60452,-4.56942 23.26486,-3.13195 35.09755,0.0642 15.85349,4.42205 27.48005,15.15917 35.87654,30.1249 5.93496,13.09577 12.42137,26.18848 11.49373,40.68469 -0.12816,9.03718 -2.99186,18.81493 -10.73274,24.23024 -9.64474,7.33808 -22.18034,8.67515 -33.82446,10.16848 -4.78899,0.28713 -9.59574,0.3465 -14.39119,0.24229 z m 12.0726,-68.58431 c 8.19833,-4.14956 -2.36267,-14.93246 -7.47475,-7.98047 -4.01881,4.83165 2.66981,10.91744 7.47475,7.98047 z"
             id="path267-7-4-3-4"
             sodipodi:nodetypes="cccccccccccccc" />
          <path
             style="fill:#31c3f9;fill-opacity:1"
             d="m 359.69701,605.92946 c -17.01556,-1.28875 -33.73906,-8.15272 -45.93884,-20.24002 -5.60042,-5.29809 -11.45597,-11.35742 -13.23399,-19.0914 -0.55577,-5.75928 0.29826,-11.7276 -0.82144,-17.3739 -0.23632,-5.1193 2.87408,-10.80618 6.00161,-15.07388 2.80802,-4.79833 5.57407,-9.68553 9.59563,-13.60794 3.52334,-3.7791 5.28617,-6.84951 9.71517,-9.72068 10.51415,-9.29653 24.66631,-14.03431 38.60398,-12.44154 20.44934,1.65821 40.13672,12.64329 49.08823,31.59563 5.0219,10.879 10.43808,22.00431 11.25214,33.99784 0.19494,10.54732 0.0345,22.94484 -8.70043,30.36126 -6.43888,5.85085 -14.90608,8.6745 -23.39336,9.73109 -10.54041,2.54318 -21.4191,2.1305 -32.1687,1.86354 z m 15.61041,-4.84949 c 7.66204,-0.67606 15.49432,-2.73479 21.92216,-7.05607 6.58722,-5.04432 -4.64453,-7.55031 -8.65694,-7.81845 -9.55526,-1.17701 -19.53053,-1.88293 -28.01292,-6.93578 -9.7577,-4.91842 -16.71074,-13.75332 -25.86584,-19.50019 -5.97991,-3.54897 -13.33471,3.67449 -11.24808,9.82323 2.32398,7.19816 6.85022,13.70294 12.24558,18.94969 9.30853,7.36068 21.04677,11.54984 32.79889,12.68803 2.27396,0.1534 4.5453,-0.0754 6.81715,-0.15046 z m 2.15482,-63.28058 c 5.49826,-2.88718 1.55813,-11.51945 -4.20048,-10.00596 -7.6694,0.72347 -5.03077,12.77201 2.12633,10.81091 0.74205,-0.10534 1.44555,-0.40599 2.07415,-0.80495 z"
             id="path266-6-4-0-5"
             sodipodi:nodetypes="cccccccccccccccccccccccccc" />
          <path
             style="mix-blend-mode:normal;fill:#0098f6;fill-opacity:0.956863"
             d="m 359.69701,605.23977 c -16.10615,-0.61272 -32.28929,-6.9077 -43.29137,-18.93725 -6.11576,-4.81615 -12.80383,-9.99417 -15.05913,-17.84957 -1.96821,-6.97093 0.8525,-15.30907 0.99186,-21.31154 -3.39032,-6.68404 5.83031,-11.38826 7.73615,-17.32322 6.01572,-9.27155 13.76411,-17.40154 22.28262,-24.40165 9.9856,-7.3451 23.19984,-9.03288 35.25222,-7.58299 13.02693,1.25071 24.64507,8.24529 33.92253,17.16031 5.51823,3.68971 8.25894,9.05431 11.41476,14.51089 3.32515,5.54752 5.39851,11.62268 8.10388,17.59628 2.92107,9.45026 3.16389,19.50464 3.18507,29.3189 -0.14695,9.87114 -6.69272,18.75371 -15.61801,22.64536 -9.13008,4.65741 -19.50907,6.65329 -29.70604,6.04607 -6.39631,0.43403 -12.81111,0.23035 -19.21454,0.12841 z m 51.86967,-14.83042 c 8.8286,-7.72901 9.12552,-22.4976 5.84236,-33.06942 -1.99903,-5.19996 -1.01408,-1.18514 -5.14763,-5.04037 -0.70298,3.80667 -1.11923,-0.96302 -1.19454,3.3732 0.8219,8.30625 0.70669,17.17304 -3.20545,24.73176 -4.02599,6.39562 -15.7892,7.36335 -21.14255,5.14152 l -41.7265,-25.09896 c -15.58495,0.29612 -21.88868,-7.02574 -25.90182,8.7577 -0.88401,9.10081 6.92067,15.59975 14.00909,19.71538 14.33253,11.58144 49.76723,25.62206 78.46704,1.48919 z m -34.53946,-52.20621 c 8.1499,-3.11672 -0.85924,-15.32407 -6.67421,-9.44312 -5.43485,4.2961 0.94222,12.82726 6.67421,9.44312 z"
             id="path264-1-21-6-8"
             sodipodi:nodetypes="ccccccccccccccccccccccccccc" />
          <path
             style="fill:#00507d;fill-opacity:1"
             d="m 351.1042,604.90717 c -11.88312,-2.10906 -21.48166,-5.90769 -31.97429,-14.03413 -17.46555,-12.35236 -21.37316,-21.54463 -20.09352,-41.95791 0.42585,-9.08046 6.14497,-16.27707 10.51013,-23.08904 7.39779,-11.54451 17.80377,-18.17854 28.10213,-24.28597 6.18612,-3.74697 44.39378,-10.85363 66.44813,13.36115 6.23754,6.84857 14.61251,22.75358 16.37136,32.14205 -11.07524,-8.01006 -31.16483,-19.71088 -45.03406,-22.80959 -31.24175,-6.69444 -32.5846,13.08035 -52.01206,20.98042 -4.46498,1.81566 -19.73341,-5.67002 -14.89971,15.87512 4.8337,21.54514 20.26393,31.03416 36.76173,37.77666 2.54364,0.57289 13.78538,7.2702 5.82016,6.04124 z m 8.79573,-30.98609 c -6.89428,-9.51207 -13.94086,-21.63841 -10.16412,-33.7214 2.8507,-7.09026 11.41999,-11.51178 18.7167,-9.98338 -3.02822,6.07621 5.98341,12.41139 10.52638,6.83114 5.63856,-0.73806 4.4873,11.79668 4.2335,16.55096 -1.40532,9.015 -9.67159,14.66756 -16.2806,19.99472 -2.73706,1.55442 -5.08261,5.00228 -7.03186,0.32796 z"
             id="path260-9-47-5-2"
             sodipodi:nodetypes="cszscscczzccccccccc" />
        </g>
      </g>
      <g
         id="g20"
         transform="matrix(-1.1585869,0.48484967,0.49039651,1.2128611,20.121576,-13.015555)">
        <g
           id="g177-8-7-4"
           transform="matrix(0.16139965,0,0,0.16139965,-27.307714,-11.901302)">
          <g
             id="g592-5-7-3"
             transform="matrix(-0.11416336,0,0,0.12048396,250.71569,107.82623)">
            <path
               style="fill:#029af7;fill-opacity:1;stroke-width:0.993881"
               d="m -41.656862,322.39678 c -1.005063,-1.42614 2.571159,0.57487 0,0 z m -42.890242,-2.80567 c -10.927462,-1.6454 -20.258626,-4.8865 -30.782136,-8.09046 -15.07713,-6.51471 -28.86071,-16.47932 -33.77111,-32.7648 -2.93435,-8.25558 -3.70522,-18.01885 0.57454,-25.48103 7.26643,-12.53684 18.42091,-23.13804 32.10468,-28.59642 17.679545,-6.82925 37.533386,-7.50625 55.916349,-3.13754 12.239016,1.97618 23.976685,8.62076 30.311357,19.39212 6.183112,8.45586 10.177551,18.6801 9.4822,29.23198 -0.578796,11.27082 -1.948947,23.70893 -10.467667,32.10871 -13.804503,13.6741 -34.269746,18.92813 -53.368213,17.33744 z m 21.040654,-68.94495 c 6.304341,-2.77647 2.641484,-14.29176 -4.322085,-11.31558 -6.305826,2.88722 -2.973058,14.5243 4.322085,11.31558 z"
               id="path597-5-8-9"
               sodipodi:nodetypes="ccccccccccccccc" />
            <path
               style="fill:#029af7;fill-opacity:1"
               d="m -84.547104,319.55544 c -11.413184,-1.69711 -20.521126,-6.47526 -31.214986,-10.70528 -13.44591,-5.45409 -26.58102,-13.7199 -32.2573,-27.56485 -3.9897,-8.9015 -5.99304,-19.68077 -0.72568,-28.13253 9.01025,-17.36061 25.52657,-29.651 44.82277,-33.07733 14.823547,-3.224 30.854608,-2.10396 45.521063,1.56731 11.466997,2.25181 22.238139,8.06339 28.207813,18.26253 6.183112,8.56029 10.177551,18.91081 9.4822,29.59301 -0.578796,11.41002 -1.948947,24.00175 -10.467667,32.50527 -13.813187,13.84724 -34.262011,19.15847 -53.368213,17.55187 z m 3.154932,-9.8054 c 7.735473,-1.65344 17.09888,-1.96172 22.345903,-8.76489 3.120337,-4.88227 0.533564,-11.48372 -2.876244,-15.588 -4.012098,-4.52557 -8.356594,-10.13271 -14.755693,-10.91586 -5.12143,0.31027 -9.048036,4.3776 -13.733721,6.13927 -5.188224,2.96207 -11.526053,1.27012 -17.223983,1.3099 -9.08548,-0.8379 -17.78037,-4.06883 -26.8598,-4.84831 -7.97821,0.37659 -6.27938,10.24807 -2.51355,14.48243 7.05471,10.96937 20.46095,15.47109 32.77854,17.26933 7.545285,1.12081 15.229963,1.71101 22.838548,0.91613 z m 17.885722,-59.99136 c 6.304341,-2.81076 2.641484,-14.46827 -4.322085,-11.45534 -6.305826,2.92288 -2.973058,14.70369 4.322085,11.45534 z"
               id="path596-5-0-0"
               sodipodi:nodetypes="ccccccccccccccccccccccc" />
            <path
               style="fill:#029af7;fill-opacity:1"
               d="m -84.729804,319.53905 c -9.833644,-1.69168 -19.645726,-4.44488 -28.296636,-9.51484 2.57729,-1.77449 10.21505,2.19682 14.767302,1.4182 11.560583,0.11555 23.269002,-1.54502 34.148666,-5.48603 5.613038,-2.51957 12.755651,-6.30247 12.942977,-13.25138 -6.514204,-8.56129 -14.432734,-16.83387 -24.067719,-21.55211 -7.707191,1.72438 -12.56426,9.82897 -20.555489,10.72171 -7.468077,0.63157 -7.136707,-8.57133 -11.915517,-11.926 -4.90348,-4.20487 -36.82549,-7.07331 -35.94096,5.80519 3.80298,19.14494 8.28701,21.21801 -1.51655,12.44587 -5.28766,-7.88746 -8.04799,-17.82 -6.63003,-27.28088 6.99116,-19.74108 24.4048,-35.59243 44.89763,-40.26847 16.939395,-4.32483 34.947594,-3.50825 51.762589,0.99201 10.353665,2.64285 19.556139,9.27593 25.014573,18.50622 6.245517,8.59532 10.007967,19.08107 9.343187,29.78462 -0.765696,11.78988 -2.145946,25.01193 -11.651278,33.28101 -13.857823,13.00904 -33.704973,17.92513 -52.302745,16.32488 z m 21.878533,-69.78472 c 5.7257,-3.53189 1.618934,-14.85764 -5.269107,-11.43185 -5.84709,3.0032 -2.695834,13.76901 4.115392,11.88173 z"
               id="path595-7-0-7"
               sodipodi:nodetypes="ccccccccccccccccccccc" />
            <path
               style="fill:#00507d;fill-opacity:1"
               d="m -65.824605,315.1978 c 75.664604,-24.04111 -0.334407,-80.01719 2.564951,-67.80611 0,0 -34.074308,-18.24054 -45.244146,-17.12915 -11.16984,1.11139 -18.746,1.09636 -12.9449,-3.62132 11.52178,-8.73126 30.394787,-9.68728 39.850608,-9.81309 28.929371,-0.38491 48.057622,10.90369 60.29307,34.81112 5.953337,11.63251 2.970828,25.66255 0.210272,37.98342 -3.075308,12.10216 -15.977864,18.53616 -26.682412,23.59213 -10.25829,4.50203 -22.369707,6.79153 -33.521522,6.52085 -6.391494,-0.6578 9.136584,-1.19834 15.474079,-4.53785 z m -76.988975,-24.82558 c -5.78415,-6.7249 -9.24166,-15.97391 -8.22549,-24.87065 -0.0614,-2.91205 4.47413,-10.4261 4.13044,-3.47254 0.69165,9.42851 -0.56554,19.99701 5.79867,27.86478 2.33034,2.95691 -0.497,1.98247 -1.70362,0.47841 z"
               id="path594-5-3-1"
               sodipodi:nodetypes="cczcssccccccccc" />
          </g>
        </g>
      </g>
      <path
         style="fill:#029af7;fill-opacity:1;stroke:#fefefa;stroke-width:0;stroke-dasharray:none;stroke-opacity:1"
         d="m 14.97089,5.8199135 c 0.06765,0.4901425 -0.0867,0.6694616 -0.376699,0.8117548 -0.475015,0.233056 -1.034821,-0.400638 -1.297326,-0.3750191 -0.497573,0.048555 -0.809676,0.6566754 -0.257843,1.0228771 0.551834,0.3661974 1.257243,0.3025376 1.802198,-0.023016 0.544957,-0.3255464 0.790292,-0.79706 0.387271,-1.4172642 -0.266385,-0.4099366 -0.340076,-0.2772995 -0.257602,-0.019341 z"
         id="path44"
         sodipodi:nodetypes="cssscscc" />
      <path
         style="fill:#231f0c;fill-opacity:1;stroke:#fefefa;stroke-width:0;stroke-dasharray:none;stroke-opacity:1"
         d="m 13.822692,5.1643118 c 0.126916,0.056034 0.618516,0.2811417 0.669343,0.9089959 0.04952,0.4618098 -0.226228,0.9333653 -0.321161,1.0650035 C 14.07593,7.269951 13.790325,7.0792794 13.652209,6.9819764 13.514087,6.884666 13.146852,6.5328462 13.10904,5.9914544 13.071228,5.4500639 13.680062,5.0286901 13.822694,5.1643103 Z"
         id="path42"
         sodipodi:nodetypes="ccssscc" />
      <ellipse
         style="fill:#ffffff;fill-opacity:1;stroke:none;stroke-width:0;stroke-dasharray:none;stroke-opacity:0.52381"
         id="path269-1-4-0"
         cx="10.993959"
         cy="10.501542"
         rx="0.31739488"
         ry="0.30994946"
         transform="matrix(0.92248075,-0.38604308,0.37484895,0.9270859,0,0)" />
      <path
         style="fill:#231f0c;fill-opacity:1;stroke:#fefefa;stroke-width:0;stroke-dasharray:none;stroke-opacity:1"
         d="M 8.3319907,6.1368173 C 8.444062,6.2164868 8.8765526,6.5329039 8.8065119,7.1452751 8.7667386,7.5981824 8.4106643,7.993883 8.2939074,8.1006714 8.177149,8.2074793 7.9372337,7.9662217 7.8221853,7.8446753 7.7071127,7.7231375 7.4189019,7.3106693 7.4851121,6.783861 7.551311,6.2570499 8.2198503,5.977603 8.3319931,6.1368159 Z"
         id="path42-8"
         sodipodi:nodetypes="ccssscc" />
      <ellipse
         style="fill:#ffffff;fill-opacity:1;stroke:none;stroke-width:0;stroke-dasharray:none;stroke-opacity:0.52381"
         id="path269-1-4-0-5"
         cx="7.3345547"
         cy="7.8602052"
         rx="0.26913062"
         ry="0.26320544"
         transform="matrix(0.98278711,-0.1847417,0.1895565,0.98186981,0,0)" />
      <g
         id="g1795-9-0"
         transform="matrix(-0.19568766,-0.01954092,-0.04157803,0.18250233,-5.2952053,-7.7554533)"
         style="stroke:#fefefa;stroke-width:1.49121;stroke-dasharray:none;stroke-opacity:1">
        <path
           style="opacity:0.671946;fill:none;fill-opacity:1;stroke:#fefefa;stroke-width:1.49121;stroke-linecap:round;stroke-dasharray:none;stroke-opacity:1"
           d="m -118.38442,83.788058 c -13.48562,-2.798756 -40.06852,1.388618 -53.16557,6.584155"
           id="path1792-9-9"
           sodipodi:nodetypes="cc" />
        <path
           style="opacity:0.671946;fill:none;fill-opacity:1;stroke:#fefefa;stroke-width:1.49121;stroke-linecap:round;stroke-dasharray:none;stroke-opacity:1"
           d="m -124.89979,80.446277 c -17.05645,-3.341782 -36.16502,-2.99936 -54.72515,1.862729"
           id="path1793-0-4"
           sodipodi:nodetypes="cc" />
        <path
           style="opacity:0.671946;fill:none;fill-opacity:1;stroke:#fefefa;stroke-width:1.49121;stroke-linecap:round;stroke-dasharray:none;stroke-opacity:1"
           d="m -122.97924,86.490899 c -16.66647,0.557715 -33.4596,9.48576 -39.71424,15.039571"
           id="path1794-4-4"
           sodipodi:nodetypes="cc" />
        <path
           style="opacity:0.671946;fill:none;fill-opacity:1;stroke:#fefefa;stroke-width:1.49121;stroke-linecap:round;stroke-dasharray:none;stroke-opacity:1"
           d="m -120.84553,78.824571 c -7.83239,-5.080032 -37.2262,-13.750129 -53.38031,-10.856962"
           id="path1795-6-8"
           sodipodi:nodetypes="cc" />
      </g>
      <g
         id="g1796-5-7"
         transform="matrix(-0.19657823,-0.01221242,-0.04095633,0.17966637,-4.0241463,-6.4277875)"
         style="stroke:#fefefa;stroke-width:1.37013;stroke-dasharray:none;stroke-opacity:1">
        <path
           style="opacity:0.671946;fill:none;fill-opacity:1;stroke:#fefefa;stroke-width:1.37013;stroke-linecap:round;stroke-dasharray:none;stroke-opacity:1"
           d="m -76.491804,95.672289 c 7.317269,0.50913 28.307578,3.704257 47.926176,18.325771"
           id="path1788-2-3"
           sodipodi:nodetypes="cc" />
        <path
           style="opacity:0.671946;fill:none;fill-opacity:1;stroke:#fefefa;stroke-width:1.37013;stroke-linecap:round;stroke-dasharray:none;stroke-opacity:1"
           d="m -75.750731,100.49435 c 9.097111,5.17533 26.409289,22.44072 30.307268,30.81695"
           id="path1789-5-7"
           sodipodi:nodetypes="cc" />
        <path
           style="opacity:0.671946;fill:none;fill-opacity:1;stroke:#fefefa;stroke-width:1.37013;stroke-linecap:round;stroke-dasharray:none;stroke-opacity:1"
           d="m -73.512797,92.174793 c 13.226483,-1.484119 33.185991,0.282798 51.091443,10.864167"
           id="path1790-4-8"
           sodipodi:nodetypes="cc" />
        <path
           style="opacity:0.671946;fill:none;fill-opacity:1;stroke:#fefefa;stroke-width:1.37013;stroke-linecap:round;stroke-dasharray:none;stroke-opacity:1"
           d="m -72.257915,99.138477 c 9.07435,2.195163 29.340832,12.971063 41.19959,28.123893"
           id="path1791-7-0"
           sodipodi:nodetypes="cc" />
      </g>
      <path
         style="fill:#fed6ca;fill-opacity:1;stroke-width:0.367817"
         d="m 9.9893519,7.9283041 c -0.375453,0.4708324 0.00375,0.4156012 0.4711401,0.7009574 0.29171,0.1780967 0.702734,0.8747572 0.922167,0.3412713 C 11.582244,8.485299 12.710923,8.1318557 12.182376,7.7565366 11.65383,7.3812164 10.564127,7.4297056 9.9893519,7.9283041 Z"
         id="path14"
         sodipodi:nodetypes="ssszs" />
      <path
         style="fill:#854f45;fill-opacity:1;stroke:#fefefa;stroke-width:0;stroke-dasharray:none;stroke-opacity:1"
         d="m 11.303985,9.605696 c 0.303355,-0.037445 -0.139254,0.477253 0.500479,0.607511 0.657941,0.133959 1.722702,0.0029 1.28587,0.464107 -0.49345,0.520959 -1.074935,-0.7246942 -2.732138,0.04807 -0.3974596,0.185329 -0.5404279,0.577663 -0.757893,0.370652 -0.5560035,-0.529269 1.131085,-0.640404 1.399638,-1.043624 0.113651,-0.1707199 -0.133432,-0.3927425 0.30403,-0.4467312 z"
         id="path63-0"
         sodipodi:nodetypes="ssssssss" />
    </g>
    <circle
       style="fill:#9eeefa;fill-opacity:1;stroke:none;stroke-width:0;stroke-dasharray:none"
       id="path1-5"
       cx="13.229167"
       cy="13.229167"
       r="10.120313" />
    <path
       style="font-weight:bold;font-size:16.9333px;font-family:Georgia;-inkscape-font-specification:'Georgia Bold';text-align:center;text-anchor:middle;opacity:0.81388;fill:#00ddff;stroke:#00dcff;stroke-width:0.138883"
       d="m 18.882526,8.9803392 q 0,2.3081178 -1.584679,3.7435158 -1.584678,1.435396 -4.225809,1.642094 l -0.0689,1.561712 h -1.022001 v -4.466956 q 1.665059,-0.137799 2.60668,-1.044969 0.94162,-0.9186538 0.94162,-2.491849 0,-1.2516663 -0.666024,-1.9980727 -0.65454,-0.7578897 -1.768409,-0.7578897 -0.470811,0 -0.838271,0.1033487 -0.367462,0.091866 -0.711958,0.2985627 0.114829,0.3674616 0.264113,0.9531035 0.160764,0.5741589 0.160764,1.0679354 0,0.8038225 -0.528225,1.2516664 -0.516743,0.4363606 -1.4468803,0.4363606 -0.872721,0 -1.3779816,-0.5511924 -0.4937767,-0.5511926 -0.4937767,-1.355015 0,-1.3205653 1.5042963,-2.2392194 1.5042963,-0.9186541 3.6286833,-0.9186541 2.514817,0 4.065046,1.309082 1.561712,1.3090822 1.561712,3.4564362 z M 14.748582,19.097018 q 0,0.872721 -0.666024,1.504296 -0.654542,0.620091 -1.538746,0.620091 -0.895689,0 -1.561712,-0.620091 -0.654541,-0.631575 -0.654541,-1.504296 0,-0.872721 0.654541,-1.504297 0.666023,-0.643058 1.561712,-0.643058 0.884204,0 1.538746,0.643058 0.666024,0.631576 0.666024,1.504297 z"
       id="text2"
       aria-label=" ?" />
  </g>
</svg>
