<?xml version="1.0" encoding="UTF-8" standalone="no"?>
<!-- Created with Inkscape (http://www.inkscape.org/) -->

<svg
   width="32"
   height="32"
   viewBox="0 0 8.4666662 8.4666662"
   version="1.1"
   id="svg2787"
   inkscape:version="1.3.2 (091e20e, 2023-11-25, custom)"
   sodipodi:docname="favicon.svg"
   xml:space="preserve"
   xmlns:inkscape="http://www.inkscape.org/namespaces/inkscape"
   xmlns:sodipodi="http://sodipodi.sourceforge.net/DTD/sodipodi-0.dtd"
   xmlns="http://www.w3.org/2000/svg"
   xmlns:svg="http://www.w3.org/2000/svg"><sodipodi:namedview
     id="namedview2789"
     pagecolor="#ffffff"
     bordercolor="#000000"
     borderopacity="0.25"
     inkscape:showpageshadow="2"
     inkscape:pageopacity="0.0"
     inkscape:pagecheckerboard="0"
     inkscape:deskcolor="#d1d1d1"
     inkscape:document-units="mm"
     showgrid="false"
     inkscape:zoom="5.6568543"
     inkscape:cx="-19.533825"
     inkscape:cy="28.90299"
     inkscape:window-width="1920"
     inkscape:window-height="991"
     inkscape:window-x="-9"
     inkscape:window-y="-9"
     inkscape:window-maximized="1"
     inkscape:current-layer="layer1"
     showguides="false" /><defs
     id="defs2784"><mask
       maskUnits="userSpaceOnUse"
       id="mask54252"><circle
         style="fill:#ffffff;fill-opacity:1;fill-rule:evenodd;stroke-width:0.225914"
         id="circle54254"
         cx="16.529335"
         cy="23.564339"
         r="11.100581" /></mask></defs><g
     inkscape:label="Layer 1"
     inkscape:groupmode="layer"
     id="layer1"><circle
       style="fill:#6e9200;fill-opacity:1;stroke-width:1.26715"
       id="path2"
       cx="4.2333331"
       cy="4.2333331"
       r="4.2333331" /><path
       style="fill:#a1d401;fill-opacity:1;stroke-width:0.785973"
       d="m 0.86764707,3.8777995 c -0.039395,0.6292577 0.1222548,1.255283 0.72803433,1.7327269 1.0273735,0.8097225 2.9204825,0.61085 3.3409681,-0.930192 C 5.0751818,4.1726261 5.6430358,4.0709692 6.0507934,4.2421183 6.6261048,4.4402035 7.1955993,5.0134938 7.0527994,5.6668375 7.0058894,6.4590234 6.4416549,7.0452687 5.8244506,7.4450235 5.3241331,7.7670361 4.7382006,8.1193064 4.1237792,8.1839966 3.0718478,8.3465849 1.5743029,7.5156919 0.76171107,6.2972897 0.38194837,5.727873 0.32712137,4.8446089 0.51147437,4.2480734 c 0.04563,-0.1476505 0.2589667,-0.3824572 0.3561727,-0.3702739 z"
       id="path14" /><path
       style="fill:#231f0c;stroke-width:0.0721397"
       d="m 3.0416871,0.82782245 c 0.069609,-0.2323606 -0.2818747,0.13117959 0,0 z"
       id="path9" /><path
       style="fill:#231f0c;fill-opacity:1;stroke-width:0.264583"
       d="m 3.6252493,1.611927 c 0,0 1.3420179,0.1711096 1.5380359,1.36125 0.313315,1.9023283 -0.99884,2.7401785 -0.99884,2.7401785 0,0 -1.1314283,-0.1679465 -1.6264282,-1.6794642 C 2.0409345,2.5160143 3.6252493,1.611927 3.6252493,1.611927 Z"
       id="path7"
       sodipodi:nodetypes="cscsc" /><path
       id="path12"
       style="fill:#485608;fill-opacity:1;stroke-width:0.431003"
       d="M 0.11782237,3.2866211 C 0.91133487,2.648501 1.7449973,1.7993048 2.7770915,1.5812988 3.6395832,1.3914032 4.6708396,1.5956528 5.1981323,2.3600627 5.6514942,2.8807161 6.1768184,3.3558993 6.7840821,3.6896973 7.1311595,3.7741313 7.6102507,3.5600724 7.8465495,3.9294759 8.0679663,4.4256868 7.8714415,4.9884848 7.7333782,5.4818359 7.3980639,6.5493484 6.577916,7.4134985 5.5857612,7.8726941 5.2767756,8.0472886 4.8158402,8.1904221 4.5552775,8.443929 6.7579828,8.2759341 8.4611985,6.4424288 8.4666667,4.2333333 8.4666668,1.8953278 6.5713389,-1.1045696e-7 4.2333334,0 2.2640323,0.00493544 0.55821783,1.3671881 0.11782237,3.2866211 Z"
       sodipodi:nodetypes="ccccccccccc" /><path
       id="path10"
       style="fill:#231f0c;fill-opacity:1;stroke-width:0.431003"
       d="M 8.2237875,2.830835 C 7.6989354,2.767619 7.7113339,3.8201632 7.6879853,4.2019193 7.6083513,5.5039534 7.413544,6.3345477 6.384456,7.320956 6.0138181,7.6762222 4.8655036,8.1225881 4.3341023,8.4640828 6.6316587,8.4093768 8.4659153,6.5315406 8.4666667,4.2333333 8.4654467,3.7554765 8.3833237,3.2812756 8.2237875,2.830835 Z"
       sodipodi:nodetypes="cssccc" /><path
       id="path11"
       style="fill:#231f0c;fill-opacity:1;stroke-width:0.431003"
       d="m 0.09611837,3.3858398 c 0.236858,0.060171 0.5299698,0.021102 0.7503416,-0.2588989 C 1.588391,2.1842553 2.1917027,1.2661365 3.4225302,1.0510986 4.8844887,0.79567982 6.0345548,1.3989484 6.6827963,1.9978109 7.1727629,2.4504551 7.6434008,2.5124619 8.0124309,2.3280233 A 4.2333331,4.2333331 0 0 0 4.2333334,0 4.2333331,4.2333331 0 0 0 0.09611837,3.3858398 Z" /><path
       style="fill:#c2fe08;fill-opacity:1;stroke-width:1.26715"
       d="M 6.5679388,5.7359006 C 6.3363508,6.754566 5.9735687,6.9493466 5.465032,7.2688572 4.888294,7.6312191 3.5813531,8.0331879 2.7716811,7.6711758 2.4206871,7.5142427 1.9758051,7.187038 1.8437671,6.8138286 1.6768581,6.3420517 3.2982111,6.9930078 4.516968,6.1538568 5.08749,5.7610352 5.458412,5.1050695 6.0785737,4.7895838 6.3963788,4.6279116 6.7016128,5.1479192 6.5679388,5.7359006 Z"
       id="path13" /><ellipse
       style="fill:#ffffff;fill-opacity:1;stroke:none;stroke-width:0;stroke-dasharray:none;stroke-opacity:0.52381"
       id="path269-10"
       cx="-3.3627264"
       cy="1.8953478"
       rx="0.51626545"
       ry="0.55517513"
       transform="scale(-1,1)" /></g></svg>
